<svg xmlns="http://www.w3.org/2000/svg" xmlns:xlink="http://www.w3.org/1999/xlink" width="500" zoomAndPan="magnify" viewBox="0 0 375 374.999991" height="500" preserveAspectRatio="xMidYMid meet" version="1.0"><rect x="-37.5" width="450" fill="#ffffff" y="-37.499999" height="449.999989" fill-opacity="1"/><rect x="-37.5" width="450" fill="#fff5f0" y="-37.499999" height="449.999989" fill-opacity="1"/><rect x="-37.5" width="450" fill="#4c9f38" y="-37.499999" height="449.999989" fill-opacity="1"/><path fill="#fff5f0" d="M 53.371094 108.140625 C 66.191406 108.140625 71.785156 101.382812 71.785156 90.894531 L 71.785156 79.707031 C 71.785156 72.714844 68.753906 68.289062 62.460938 66.890625 C 67.589844 65.257812 71.085938 61.0625 71.085938 54.535156 L 71.085938 48.011719 C 71.085938 37.289062 65.957031 30.765625 54.304688 30.765625 C 41.253906 30.765625 36.589844 38.457031 36.589844 49.644531 L 36.589844 56.402344 L 48.246094 56.402344 L 48.246094 48.710938 C 48.246094 44.050781 49.644531 41.253906 53.605469 41.253906 C 57.566406 41.253906 58.964844 43.816406 58.964844 48.011719 L 58.964844 56.167969 C 58.964844 60.128906 56.402344 62.226562 52.207031 62.226562 L 47.3125 62.226562 L 47.3125 72.015625 L 52.671875 72.015625 C 57.101562 72.015625 58.964844 74.113281 58.964844 78.078125 L 58.964844 90.660156 C 58.964844 94.625 57.101562 97.421875 53.371094 97.421875 C 48.945312 97.421875 47.546875 94.625 47.546875 89.960938 L 47.546875 79.242188 L 35.890625 79.242188 L 35.890625 89.261719 C 35.890625 100.683594 40.554688 108.140625 53.371094 108.140625 " fill-opacity="1" fill-rule="nonzero"/><path fill="#fff5f0" d="M 313.238281 234.460938 C 313.238281 223.972656 306.480469 215.351562 296.222656 215.351562 C 291.097656 215.351562 284.804688 220.945312 281.542969 224.441406 C 278.277344 220.945312 272.453125 215.351562 267.324219 215.351562 C 257.070312 215.351562 249.84375 223.972656 249.84375 234.460938 C 249.84375 239.824219 251.941406 244.484375 255.207031 247.980469 L 281.542969 274.316406 L 307.878906 247.980469 C 311.140625 244.484375 313.238281 239.824219 313.238281 234.460938 Z M 313.238281 234.460938 " fill-opacity="1" fill-rule="nonzero"/><path fill="#fff5f0" d="M 201.367188 317.199219 C 199.035156 316.96875 197.40625 315.570312 197.171875 313.703125 L 183.886719 235.859375 L 163.609375 273.382812 C 162.679688 275.015625 160.8125 275.949219 158.949219 275.480469 C 157.085938 275.25 155.6875 273.617188 155.453125 271.753906 L 146.832031 211.621094 L 131.214844 246.816406 C 130.515625 248.445312 128.882812 249.378906 127.253906 249.378906 L 66.191406 249.378906 C 63.859375 249.378906 61.761719 247.515625 61.761719 244.949219 C 61.761719 242.621094 63.625 240.523438 66.191406 240.523438 L 124.457031 240.523438 L 145.199219 194.140625 C 145.898438 192.277344 147.761719 191.34375 149.628906 191.578125 C 151.492188 191.8125 153.125 193.441406 153.355469 195.308594 L 162.210938 257.300781 L 182.257812 220.246094 C 183.1875 218.613281 184.820312 217.683594 186.683594 218.148438 C 188.546875 218.382812 189.945312 219.78125 190.179688 221.644531 L 202.53125 293.660156 L 247.515625 144.035156 C 247.980469 142.402344 249.613281 141.003906 251.242188 141.003906 C 253.109375 140.769531 254.738281 141.9375 255.4375 143.335938 L 279.210938 192.511719 C 280.144531 194.609375 279.445312 197.171875 277.113281 198.335938 C 275.015625 199.269531 272.453125 198.570312 271.285156 196.238281 L 252.410156 157.085938 L 205.328125 313.703125 C 204.863281 316.035156 203.230469 317.199219 201.367188 317.199219 Z M 201.367188 317.199219 " fill-opacity="1" fill-rule="nonzero"/><path fill="#fff5f0" d="M 114.902344 45.679688 L 122.125 45.679688 L 122.125 61.996094 L 118.398438 61.996094 L 118.398438 58.730469 C 117.699219 61.0625 116.300781 62.460938 113.503906 62.460938 C 109.074219 62.460938 106.976562 58.964844 106.976562 54.304688 L 106.976562 39.386719 C 106.976562 34.492188 109.308594 31.230469 114.667969 31.230469 C 120.261719 31.230469 122.125 34.492188 122.125 38.921875 L 122.125 41.71875 L 117.464844 41.71875 L 117.464844 38.6875 C 117.464844 36.824219 116.765625 35.660156 114.902344 35.660156 C 113.035156 35.660156 112.335938 37.058594 112.335938 38.921875 L 112.335938 55.46875 C 112.335938 57.332031 113.035156 58.730469 114.902344 58.730469 C 116.53125 58.730469 117.464844 57.800781 117.464844 55.703125 L 117.464844 50.34375 L 115.132812 50.34375 L 115.132812 45.679688 Z M 125.621094 54.304688 L 125.621094 39.386719 C 125.621094 34.492188 127.953125 31.230469 133.3125 31.230469 C 138.671875 31.230469 141.238281 34.726562 141.238281 39.386719 L 141.238281 54.304688 C 141.238281 58.964844 138.90625 62.460938 133.3125 62.460938 C 127.953125 62.460938 125.621094 58.964844 125.621094 54.304688 Z M 136.109375 55.003906 L 136.109375 38.457031 C 136.109375 36.589844 135.410156 35.191406 133.546875 35.191406 C 131.679688 35.191406 130.980469 36.589844 130.980469 38.457031 L 130.980469 55.003906 C 130.980469 56.867188 131.679688 58.265625 133.546875 58.265625 C 135.175781 58.265625 136.109375 56.867188 136.109375 55.003906 Z M 144.5 54.304688 L 144.5 39.386719 C 144.5 34.492188 146.832031 31.230469 152.191406 31.230469 C 157.550781 31.230469 160.113281 34.726562 160.113281 39.386719 L 160.113281 54.304688 C 160.113281 58.964844 157.785156 62.460938 152.191406 62.460938 C 146.832031 62.460938 144.5 58.964844 144.5 54.304688 Z M 154.988281 55.003906 L 154.988281 38.457031 C 154.988281 36.589844 154.289062 35.191406 152.425781 35.191406 C 150.558594 35.191406 149.859375 36.589844 149.859375 38.457031 L 149.859375 55.003906 C 149.859375 56.867188 150.558594 58.265625 152.425781 58.265625 C 154.289062 58.265625 154.988281 56.867188 154.988281 55.003906 Z M 178.992188 39.621094 L 178.992188 53.835938 C 178.992188 58.5 177.128906 61.996094 171.535156 61.996094 L 163.609375 61.996094 L 163.609375 31.464844 L 171.535156 31.464844 C 176.894531 31.464844 178.992188 34.960938 178.992188 39.621094 Z M 170.835938 57.800781 C 172.933594 57.800781 173.867188 56.632812 173.867188 54.769531 L 173.867188 38.6875 C 173.867188 36.824219 173.167969 35.660156 170.835938 35.660156 L 168.738281 35.660156 L 168.738281 57.800781 Z M 199.503906 48.710938 L 194.609375 48.710938 L 194.609375 62.226562 L 189.480469 62.226562 L 189.480469 31.695312 L 194.609375 31.695312 L 194.609375 44.75 L 199.503906 44.75 L 199.503906 31.695312 L 204.628906 31.695312 L 204.628906 62.226562 L 199.503906 62.226562 Z M 208.359375 31.464844 L 220.710938 31.464844 L 220.710938 35.660156 L 213.488281 35.660156 L 213.488281 44.515625 L 218.613281 44.515625 L 218.613281 48.710938 L 213.488281 48.710938 L 213.488281 58.03125 L 220.710938 58.03125 L 220.710938 62.226562 L 208.359375 62.226562 Z M 223.042969 62.226562 L 228.867188 31.695312 L 234.695312 31.695312 L 240.523438 62.226562 L 235.160156 62.226562 L 234.230469 56.632812 L 228.867188 56.632812 L 227.9375 62.226562 Z M 229.566406 52.4375 L 233.761719 52.4375 L 231.664062 40.085938 Z M 243.085938 31.464844 L 248.214844 31.464844 L 248.214844 57.800781 L 254.273438 57.800781 L 254.273438 61.996094 L 243.085938 61.996094 Z M 253.574219 31.464844 L 267.324219 31.464844 L 267.324219 35.660156 L 263.128906 35.660156 L 263.128906 61.996094 L 258 61.996094 L 258 35.660156 L 253.808594 35.660156 L 253.808594 31.464844 Z M 280.375 48.710938 L 275.480469 48.710938 L 275.480469 62.226562 L 270.355469 62.226562 L 270.355469 31.695312 L 275.480469 31.695312 L 275.480469 44.75 L 280.375 44.75 L 280.375 31.695312 L 285.503906 31.695312 L 285.503906 62.226562 L 280.375 62.226562 Z M 280.375 48.710938 " fill-opacity="1" fill-rule="nonzero"/><path fill="#fff5f0" d="M 106.277344 106.976562 L 112.105469 76.445312 L 117.929688 76.445312 L 123.757812 106.976562 L 118.398438 106.976562 L 117.464844 101.382812 L 112.105469 101.382812 L 111.171875 106.976562 Z M 112.804688 97.421875 L 117 97.421875 L 114.902344 85.070312 Z M 130.28125 87.863281 L 130.28125 107.210938 L 125.855469 107.210938 L 125.855469 76.679688 L 130.980469 76.679688 L 136.574219 94.15625 L 136.574219 76.679688 L 140.769531 76.679688 L 140.769531 107.210938 L 136.34375 107.210938 Z M 159.882812 84.601562 L 159.882812 98.820312 C 159.882812 103.480469 158.015625 106.976562 152.425781 106.976562 L 144.5 106.976562 L 144.5 76.445312 L 152.425781 76.445312 C 158.015625 76.445312 159.882812 79.941406 159.882812 84.601562 Z M 151.726562 102.78125 C 153.820312 102.78125 154.753906 101.617188 154.753906 99.75 L 154.753906 83.671875 C 154.753906 81.804688 154.054688 80.640625 151.726562 80.640625 L 149.628906 80.640625 L 149.628906 102.78125 Z M 179.691406 88.097656 L 176.894531 106.976562 L 172 106.976562 L 167.804688 76.445312 L 172.699219 76.445312 L 175.03125 95.789062 L 177.59375 76.445312 L 181.789062 76.445312 L 184.585938 95.789062 L 186.917969 76.445312 L 191.34375 76.445312 L 187.382812 106.976562 L 182.488281 106.976562 Z M 194.140625 76.445312 L 206.496094 76.445312 L 206.496094 80.640625 L 199.269531 80.640625 L 199.269531 89.496094 L 204.398438 89.496094 L 204.398438 93.691406 L 199.269531 93.691406 L 199.269531 103.015625 L 206.496094 103.015625 L 206.496094 107.210938 L 194.140625 107.210938 Z M 209.757812 76.445312 L 214.886719 76.445312 L 214.886719 102.78125 L 220.945312 102.78125 L 220.945312 106.976562 L 209.757812 106.976562 Z M 223.742188 76.445312 L 228.867188 76.445312 L 228.867188 102.78125 L 234.929688 102.78125 L 234.929688 106.976562 L 223.742188 106.976562 Z M 234.460938 89.03125 L 241.6875 89.03125 L 241.6875 93.226562 L 234.460938 93.226562 Z M 244.71875 76.445312 L 252.175781 76.445312 C 257.300781 76.445312 258.933594 78.777344 258.933594 83.203125 L 258.933594 86.234375 C 258.933594 88.796875 258 90.429688 255.902344 91.128906 C 258.46875 91.828125 259.632812 93.457031 259.632812 96.253906 L 259.632812 100.21875 C 259.632812 104.644531 257.769531 106.976562 252.640625 106.976562 L 244.71875 106.976562 Z M 249.84375 89.261719 L 251.710938 89.261719 C 253.339844 89.261719 254.039062 88.332031 254.039062 86.699219 L 254.039062 82.972656 C 254.039062 81.339844 253.339844 80.40625 251.476562 80.40625 L 249.613281 80.40625 Z M 249.84375 93.226562 L 249.84375 102.78125 L 252.175781 102.78125 C 253.808594 102.78125 254.738281 101.847656 254.738281 100.21875 L 254.738281 95.554688 C 254.738281 93.925781 254.039062 92.992188 252.175781 92.992188 L 249.84375 92.992188 Z M 262.894531 76.445312 L 275.25 76.445312 L 275.25 80.640625 L 268.023438 80.640625 L 268.023438 89.496094 L 273.152344 89.496094 L 273.152344 93.691406 L 268.023438 93.691406 L 268.023438 103.015625 L 275.25 103.015625 L 275.25 107.210938 L 262.894531 107.210938 Z M 278.277344 76.445312 L 283.40625 76.445312 L 283.40625 106.976562 L 278.277344 106.976562 Z M 291.5625 87.863281 L 291.5625 107.210938 L 287.136719 107.210938 L 287.136719 76.679688 L 292.261719 76.679688 L 297.855469 94.15625 L 297.855469 76.679688 L 302.050781 76.679688 L 302.050781 107.210938 L 297.621094 107.210938 Z M 313.472656 90.660156 L 320.695312 90.660156 L 320.695312 106.976562 L 316.96875 106.976562 L 316.96875 103.714844 C 316.269531 106.042969 314.871094 107.441406 312.074219 107.441406 C 307.644531 107.441406 305.546875 103.945312 305.546875 99.285156 L 305.546875 84.371094 C 305.546875 79.476562 307.878906 76.210938 313.238281 76.210938 C 318.832031 76.210938 320.695312 79.476562 320.695312 83.902344 L 320.695312 86.699219 L 316.035156 86.699219 L 316.035156 83.671875 C 316.035156 81.804688 315.335938 80.640625 313.472656 80.640625 C 311.605469 80.640625 310.90625 82.039062 310.90625 83.902344 L 310.90625 100.449219 C 310.90625 102.316406 311.605469 103.714844 313.472656 103.714844 C 315.101562 103.714844 316.035156 102.78125 316.035156 100.683594 L 316.035156 95.324219 L 313.703125 95.324219 L 313.703125 90.660156 Z M 313.472656 90.660156 " fill-opacity="1" fill-rule="nonzero"/></svg>