<svg xmlns="http://www.w3.org/2000/svg" xmlns:xlink="http://www.w3.org/1999/xlink" width="500" zoomAndPan="magnify" viewBox="0 0 375 374.999991" height="500" preserveAspectRatio="xMidYMid meet" version="1.0"><defs><clipPath id="4ef09501f6"><path d="M 87 302 L 112 302 L 112 351.527344 L 87 351.527344 Z M 87 302 " clip-rule="nonzero"/></clipPath><clipPath id="b896d937e5"><path d="M 135 302 L 161 302 L 161 351.527344 L 135 351.527344 Z M 135 302 " clip-rule="nonzero"/></clipPath><clipPath id="6012f19cd2"><path d="M 247 302 L 272 302 L 272 351.527344 L 247 351.527344 Z M 247 302 " clip-rule="nonzero"/></clipPath><clipPath id="93b5b81e8d"><path d="M 274 302 L 300 302 L 300 351.527344 L 274 351.527344 Z M 274 302 " clip-rule="nonzero"/></clipPath><clipPath id="b5a826d0a1"><path d="M 351 302 L 374.9375 302 L 374.9375 351.527344 L 351 351.527344 Z M 351 302 " clip-rule="nonzero"/></clipPath><clipPath id="de1f028258"><path d="M 4.4375 302 L 27 302 L 27 351 L 4.4375 351 Z M 4.4375 302 " clip-rule="nonzero"/></clipPath><clipPath id="88f0690524"><path d="M 191 23.777344 L 229 23.777344 L 229 82 L 191 82 Z M 191 23.777344 " clip-rule="nonzero"/></clipPath><clipPath id="202a786889"><path d="M 147 23.777344 L 185 23.777344 L 185 81 L 147 81 Z M 147 23.777344 " clip-rule="nonzero"/></clipPath></defs><rect x="-37.5" width="450" fill="#ffffff" y="-37.499999" height="449.999989" fill-opacity="1"/><rect x="-37.5" width="450" fill="#fff5f0" y="-37.499999" height="449.999989" fill-opacity="1"/><g clip-path="url(#4ef09501f6)"><path fill="#020303" d="M 99.625 325.089844 L 111.152344 325.089844 L 111.152344 350.875 L 105.347656 350.875 L 105.347656 345.636719 C 104.285156 349.238281 101.996094 351.445312 97.582031 351.445312 C 90.632812 351.445312 87.441406 345.882812 87.441406 338.433594 L 87.441406 315.101562 C 87.441406 307.574219 91.039062 302.089844 99.625 302.089844 C 108.621094 302.089844 111.234375 307.082031 111.234375 314.203125 L 111.234375 318.460938 L 103.796875 318.460938 L 103.796875 313.546875 C 103.796875 310.519531 102.652344 308.882812 99.707031 308.882812 C 96.765625 308.882812 95.539062 310.929688 95.539062 313.875 L 95.539062 339.742188 C 95.539062 342.6875 96.765625 344.734375 99.542969 344.734375 C 102.160156 344.734375 103.550781 343.261719 103.550781 340.152344 L 103.550781 331.636719 L 99.707031 331.636719 L 99.707031 325.089844 Z M 99.625 325.089844 " fill-opacity="1" fill-rule="nonzero"/></g><path fill="#020303" d="M 115.078125 302.578125 L 123.171875 302.578125 L 123.171875 344.242188 L 132.820312 344.242188 L 132.820312 350.875 L 115.078125 350.875 Z M 115.078125 302.578125 " fill-opacity="1" fill-rule="nonzero"/><g clip-path="url(#b896d937e5)"><path fill="#020303" d="M 135.519531 338.433594 L 135.519531 315.101562 C 135.519531 307.574219 139.199219 302.089844 147.785156 302.089844 C 156.371094 302.089844 160.128906 307.574219 160.128906 315.101562 L 160.128906 338.433594 C 160.128906 345.882812 156.453125 351.445312 147.785156 351.445312 C 139.199219 351.445312 135.519531 345.882812 135.519531 338.433594 M 151.953125 339.660156 L 151.953125 313.792969 C 151.953125 310.847656 150.644531 308.800781 147.703125 308.800781 C 144.839844 308.800781 143.53125 310.847656 143.53125 313.792969 L 143.53125 339.660156 C 143.53125 342.605469 144.839844 344.652344 147.703125 344.652344 C 150.644531 344.652344 151.953125 342.605469 151.953125 339.660156 " fill-opacity="1" fill-rule="nonzero"/></g><path fill="#020303" d="M 163.972656 302.578125 L 175.746094 302.578125 C 183.84375 302.578125 186.539062 306.34375 186.539062 313.140625 L 186.539062 318.050781 C 186.539062 322.144531 185.070312 324.679688 181.714844 325.746094 C 185.804688 326.644531 187.765625 329.347656 187.765625 333.765625 L 187.765625 340.152344 C 187.765625 346.945312 184.742188 350.792969 176.566406 350.792969 L 163.972656 350.792969 Z M 172.066406 322.960938 L 174.929688 322.960938 C 177.546875 322.960938 178.773438 321.570312 178.773438 319.03125 L 178.773438 313.140625 C 178.773438 310.519531 177.546875 309.210938 174.847656 309.210938 L 172.066406 309.210938 Z M 172.066406 329.183594 L 172.066406 344.242188 L 175.664062 344.242188 C 178.363281 344.242188 179.671875 342.851562 179.671875 340.316406 L 179.671875 333.03125 C 179.671875 330.492188 178.445312 329.101562 175.585938 329.101562 L 172.066406 329.101562 Z M 172.066406 329.183594 " fill-opacity="1" fill-rule="nonzero"/><path fill="#020303" d="M 189.484375 350.875 L 198.558594 302.660156 L 207.800781 302.660156 L 216.957031 350.875 L 208.617188 350.875 L 207.144531 342.035156 L 198.558594 342.035156 L 197.167969 350.875 Z M 199.621094 335.566406 L 206.082031 335.566406 L 202.894531 316.25 L 202.8125 316.25 Z M 199.621094 335.566406 " fill-opacity="1" fill-rule="nonzero"/><path fill="#020303" d="M 219.65625 302.578125 L 227.75 302.578125 L 227.75 344.242188 L 237.480469 344.242188 L 237.480469 350.875 L 219.65625 350.875 Z M 219.65625 302.578125 " fill-opacity="1" fill-rule="nonzero"/><g clip-path="url(#6012f19cd2)"><path fill="#020303" d="M 259.472656 325.089844 L 271.003906 325.089844 L 271.003906 350.875 L 265.195312 350.875 L 265.195312 345.636719 C 264.132812 349.238281 261.84375 351.445312 257.429688 351.445312 C 250.480469 351.445312 247.289062 345.882812 247.289062 338.433594 L 247.289062 315.101562 C 247.289062 307.574219 250.886719 302.089844 259.472656 302.089844 C 268.46875 302.089844 271.085938 307.082031 271.085938 314.203125 L 271.085938 318.460938 L 263.644531 318.460938 L 263.644531 313.546875 C 263.644531 310.519531 262.5 308.882812 259.554688 308.882812 C 256.613281 308.882812 255.386719 310.929688 255.386719 313.875 L 255.386719 339.742188 C 255.386719 342.6875 256.613281 344.734375 259.390625 344.734375 C 262.007812 344.734375 263.398438 343.261719 263.398438 340.152344 L 263.398438 331.636719 L 259.554688 331.636719 L 259.554688 325.089844 Z M 259.472656 325.089844 " fill-opacity="1" fill-rule="nonzero"/></g><g clip-path="url(#93b5b81e8d)"><path fill="#020303" d="M 274.925781 338.433594 L 274.925781 315.101562 C 274.925781 307.574219 278.605469 302.089844 287.191406 302.089844 C 295.777344 302.089844 299.539062 307.574219 299.539062 315.101562 L 299.539062 338.433594 C 299.539062 345.882812 295.859375 351.445312 287.191406 351.445312 C 278.605469 351.445312 274.925781 345.882812 274.925781 338.433594 M 291.363281 339.660156 L 291.363281 313.792969 C 291.363281 310.847656 290.054688 308.800781 287.191406 308.800781 C 284.328125 308.800781 283.019531 310.847656 283.019531 313.792969 L 283.019531 339.660156 C 283.019531 342.605469 284.328125 344.652344 287.191406 344.652344 C 290.054688 344.652344 291.363281 342.605469 291.363281 339.660156 " fill-opacity="1" fill-rule="nonzero"/></g><path fill="#020303" d="M 301.007812 350.875 L 310.085938 302.660156 L 319.324219 302.660156 L 328.480469 350.875 L 320.140625 350.875 L 318.671875 342.035156 L 310.085938 342.035156 L 308.695312 350.875 Z M 311.230469 335.566406 L 317.6875 335.566406 L 314.5 316.25 L 314.417969 316.25 Z M 311.230469 335.566406 " fill-opacity="1" fill-rule="nonzero"/><path fill="#020303" d="M 331.179688 302.578125 L 339.273438 302.578125 L 339.273438 344.242188 L 349.003906 344.242188 L 349.003906 350.875 L 331.179688 350.875 Z M 331.179688 302.578125 " fill-opacity="1" fill-rule="nonzero"/><g clip-path="url(#b5a826d0a1)"><path fill="#020303" d="M 351.210938 340.480469 L 351.210938 334.011719 L 358.734375 334.011719 L 358.734375 340.640625 C 358.734375 343.34375 359.960938 344.898438 362.742188 344.898438 C 365.277344 344.898438 366.421875 343.179688 366.421875 340.640625 L 366.421875 338.757812 C 366.421875 335.976562 365.277344 334.257812 362.824219 331.964844 L 358.082031 327.21875 C 353.421875 322.632812 351.292969 319.851562 351.292969 314.367188 L 351.292969 312.730469 C 351.292969 306.753906 354.808594 302.089844 362.660156 302.089844 C 370.753906 302.089844 373.941406 306.097656 373.941406 313.058594 L 373.941406 316.984375 L 366.503906 316.984375 L 366.503906 312.730469 C 366.503906 309.945312 365.195312 308.636719 362.660156 308.636719 C 360.371094 308.636719 358.816406 309.945312 358.816406 312.648438 L 358.816406 313.628906 C 358.816406 316.332031 360.289062 317.886719 362.660156 320.179688 L 367.890625 325.335938 C 372.308594 329.835938 374.433594 332.539062 374.433594 337.859375 L 374.433594 340.234375 C 374.433594 346.863281 370.917969 351.527344 362.578125 351.527344 C 354.402344 351.445312 351.210938 346.78125 351.210938 340.480469 " fill-opacity="1" fill-rule="nonzero"/></g><g clip-path="url(#de1f028258)"><path fill="#020303" d="M 4.941406 302.578125 L 26.527344 302.578125 L 26.527344 309.210938 L 19.824219 309.210938 L 19.824219 350.875 L 11.648438 350.875 L 11.648438 309.210938 L 4.941406 309.210938 Z M 4.941406 302.578125 " fill-opacity="1" fill-rule="nonzero"/></g><path fill="#020303" d="M 45.496094 329.589844 L 37.648438 329.589844 L 37.648438 350.875 L 29.554688 350.875 L 29.554688 302.578125 L 37.648438 302.578125 L 37.648438 323.042969 L 45.496094 323.042969 L 45.496094 302.578125 L 53.675781 302.578125 L 53.675781 350.875 L 45.496094 350.875 Z M 45.496094 329.589844 " fill-opacity="1" fill-rule="nonzero"/><path fill="#020303" d="M 57.597656 302.578125 L 76.976562 302.578125 L 76.976562 309.210938 L 65.773438 309.210938 L 65.773438 323.042969 L 73.789062 323.042969 L 73.789062 329.589844 L 65.773438 329.589844 L 65.773438 344.242188 L 76.976562 344.242188 L 76.976562 350.875 L 57.597656 350.875 Z M 57.597656 302.578125 " fill-opacity="1" fill-rule="nonzero"/><path fill="#63b335" d="M 127.589844 111.9375 C 130.695312 106.699219 134.375 101.953125 138.625 97.695312 L 102.40625 57.914062 C 93.246094 66.671875 85.480469 76.738281 79.347656 87.953125 Z M 127.589844 111.9375 " fill-opacity="1" fill-rule="nonzero"/><path fill="#e5b735" d="M 216.382812 83.859375 C 221.863281 86.398438 226.929688 89.589844 231.59375 93.355469 L 267.894531 53.65625 C 258.328125 45.390625 247.453125 38.59375 235.679688 33.519531 Z M 216.382812 83.859375 " fill-opacity="1" fill-rule="nonzero"/><path fill="#c51c2e" d="M 299.539062 95.8125 L 251.378906 119.878906 C 253.667969 125.28125 255.304688 130.929688 256.203125 136.902344 L 309.757812 131.828125 C 308.203125 119.140625 304.6875 107.027344 299.539062 95.8125 " fill-opacity="1" fill-rule="nonzero"/><path fill="#4c9f37" d="M 247.945312 112.839844 L 296.105469 88.855469 C 290.136719 77.722656 282.53125 67.652344 273.617188 58.976562 L 237.316406 98.675781 C 241.402344 102.933594 245 107.679688 247.945312 112.839844 " fill-opacity="1" fill-rule="nonzero"/><path fill="#3f7f45" d="M 118.023438 147.136719 C 118.023438 146.070312 118.023438 145.007812 118.105469 143.859375 L 64.550781 139.03125 C 64.386719 141.652344 64.304688 144.351562 64.304688 147.054688 C 64.304688 157.367188 65.613281 167.355469 67.984375 176.847656 L 119.738281 161.953125 C 118.59375 157.285156 118.023438 152.292969 118.023438 147.136719 " fill-opacity="1" fill-rule="nonzero"/><path fill="#fcc310" d="M 241.242188 191.175781 C 237.398438 195.839844 233.0625 199.933594 228.15625 203.453125 L 256.449219 249.292969 C 266.914062 242.167969 276.316406 233.492188 284.167969 223.507812 Z M 241.242188 191.175781 " fill-opacity="1" fill-rule="nonzero"/><path fill="#e8422e" d="M 256.9375 147.136719 C 256.9375 152.210938 256.367188 157.203125 255.386719 161.953125 L 307.140625 176.847656 C 309.511719 167.355469 310.738281 157.367188 310.738281 147.136719 C 310.738281 144.597656 310.65625 142.058594 310.492188 139.523438 L 256.9375 144.597656 C 256.9375 145.417969 256.9375 146.316406 256.9375 147.136719 " fill-opacity="1" fill-rule="nonzero"/><path fill="#f59d2d" d="M 134.621094 192.238281 L 91.777344 224.816406 C 99.707031 234.640625 109.191406 243.152344 119.738281 250.191406 L 148.03125 204.433594 C 143.042969 200.914062 138.546875 196.820312 134.621094 192.238281 " fill-opacity="1" fill-rule="nonzero"/><path fill="#1896d4" d="M 118.839844 136.167969 C 119.820312 130.109375 121.539062 124.296875 123.992188 118.894531 L 75.832031 94.828125 C 70.519531 106.125 66.839844 118.402344 65.203125 131.335938 Z M 118.839844 136.167969 " fill-opacity="1" fill-rule="nonzero"/><path fill="#a31b43" d="M 249.824219 253.464844 L 221.617188 207.707031 C 216.464844 210.574219 210.988281 212.867188 205.101562 214.421875 L 215.074219 267.382812 C 227.503906 264.515625 239.195312 259.769531 249.824219 253.464844 " fill-opacity="1" fill-rule="nonzero"/><path fill="#2ebce0" d="M 253.339844 169.398438 C 251.460938 174.882812 248.925781 180.125 245.820312 184.871094 L 288.746094 217.285156 C 295.695312 207.21875 301.253906 196.085938 305.015625 184.214844 Z M 253.339844 169.398438 " fill-opacity="1" fill-rule="nonzero"/><path fill="#ed6930" d="M 197.496094 215.976562 C 194.226562 216.46875 190.875 216.710938 187.441406 216.710938 C 184.742188 216.710938 182.042969 216.550781 179.34375 216.222656 L 169.371094 269.183594 C 175.257812 270.082031 181.308594 270.492188 187.441406 270.492188 C 194.226562 270.492188 200.929688 269.917969 207.390625 268.855469 Z M 197.496094 215.976562 " fill-opacity="1" fill-rule="nonzero"/><g clip-path="url(#88f0690524)"><path fill="#e6243c" d="M 191.9375 77.722656 C 197.90625 78.132812 203.710938 79.277344 209.105469 81.078125 L 228.402344 30.820312 C 216.875 26.726562 204.609375 24.351562 191.855469 23.859375 L 191.855469 77.722656 Z M 191.9375 77.722656 " fill-opacity="1" fill-rule="nonzero"/></g><path fill="#de1868" d="M 171.742188 214.910156 C 165.691406 213.519531 159.96875 211.308594 154.652344 208.445312 L 126.363281 254.285156 C 137.238281 260.503906 149.175781 265.171875 161.765625 267.871094 Z M 171.742188 214.910156 " fill-opacity="1" fill-rule="nonzero"/><g clip-path="url(#202a786889)"><path fill="#1a496a" d="M 166.589844 80.75 C 172.148438 78.949219 178.035156 77.886719 184.167969 77.640625 L 184.167969 23.777344 C 171.25 24.105469 158.824219 26.480469 147.128906 30.492188 Z M 166.589844 80.75 " fill-opacity="1" fill-rule="nonzero"/></g><path fill="#c99a2d" d="M 129.878906 186.015625 C 126.445312 180.941406 123.664062 175.457031 121.703125 169.5625 L 70.027344 184.378906 C 73.953125 196.738281 79.757812 208.199219 87.117188 218.59375 Z M 129.878906 186.015625 " fill-opacity="1" fill-rule="nonzero"/><path fill="#02699e" d="M 144.433594 92.539062 C 149.011719 88.9375 154 85.90625 159.3125 83.535156 L 139.851562 33.273438 C 128.242188 38.105469 117.613281 44.734375 108.128906 52.757812 Z M 144.433594 92.539062 " fill-opacity="1" fill-rule="nonzero"/></svg>