<svg xmlns="http://www.w3.org/2000/svg" xmlns:xlink="http://www.w3.org/1999/xlink" width="500" zoomAndPan="magnify" viewBox="0 0 375 374.999991" height="500" preserveAspectRatio="xMidYMid meet" version="1.0"><defs><clipPath id="cddaf572e9"><path d="M 93 292 L 116 292 L 116 337.5 L 93 337.5 Z M 93 292 " clip-rule="nonzero"/></clipPath><clipPath id="e84521eb7b"><path d="M 137 292 L 161 292 L 161 337.5 L 137 337.5 Z M 137 292 " clip-rule="nonzero"/></clipPath><clipPath id="f18f00a3d9"><path d="M 240 292 L 262 292 L 262 337.5 L 240 337.5 Z M 240 292 " clip-rule="nonzero"/></clipPath><clipPath id="cbefc32aa0"><path d="M 265 292 L 288 292 L 288 337.5 L 265 337.5 Z M 265 292 " clip-rule="nonzero"/></clipPath><clipPath id="0e0ded34da"><path d="M 335 292 L 356.949219 292 L 356.949219 337.5 L 335 337.5 Z M 335 292 " clip-rule="nonzero"/></clipPath><clipPath id="9a05befbe4"><path d="M 189 37.5 L 223 37.5 L 223 90 L 189 90 Z M 189 37.5 " clip-rule="nonzero"/></clipPath><clipPath id="072bcdc529"><path d="M 148 37.5 L 183 37.5 L 183 90 L 148 90 Z M 148 37.5 " clip-rule="nonzero"/></clipPath><clipPath id="315cba23f4"><path d="M 147.40625 107.128906 L 227.65625 107.128906 L 227.65625 187.378906 L 147.40625 187.378906 Z M 147.40625 107.128906 " clip-rule="nonzero"/></clipPath></defs><g clip-path="url(#cddaf572e9)"><path fill="#020303" d="M 105.042969 313.300781 L 115.589844 313.300781 L 115.589844 336.902344 L 110.277344 336.902344 L 110.277344 332.105469 C 109.304688 335.402344 107.210938 337.425781 103.171875 337.425781 C 96.8125 337.425781 93.894531 332.332031 93.894531 325.511719 L 93.894531 304.160156 C 93.894531 297.265625 97.1875 292.246094 105.042969 292.246094 C 113.269531 292.246094 115.664062 296.816406 115.664062 303.335938 L 115.664062 307.230469 L 108.855469 307.230469 L 108.855469 302.734375 C 108.855469 299.960938 107.808594 298.464844 105.117188 298.464844 C 102.421875 298.464844 101.300781 300.335938 101.300781 303.035156 L 101.300781 326.710938 C 101.300781 329.40625 102.421875 331.28125 104.964844 331.28125 C 107.359375 331.28125 108.632812 329.933594 108.632812 327.085938 L 108.632812 319.292969 L 105.117188 319.292969 L 105.117188 313.300781 Z M 105.042969 313.300781 " fill-opacity="1" fill-rule="nonzero"/></g><path fill="#020303" d="M 119.179688 292.695312 L 126.585938 292.695312 L 126.585938 330.832031 L 135.414062 330.832031 L 135.414062 336.902344 L 119.179688 336.902344 Z M 119.179688 292.695312 " fill-opacity="1" fill-rule="nonzero"/><g clip-path="url(#e84521eb7b)"><path fill="#020303" d="M 137.882812 325.511719 L 137.882812 304.160156 C 137.882812 297.265625 141.25 292.246094 149.105469 292.246094 C 156.960938 292.246094 160.402344 297.265625 160.402344 304.160156 L 160.402344 325.511719 C 160.402344 332.332031 157.035156 337.425781 149.105469 337.425781 C 141.25 337.425781 137.882812 332.332031 137.882812 325.511719 M 152.921875 326.636719 L 152.921875 302.960938 C 152.921875 300.261719 151.726562 298.390625 149.03125 298.390625 C 146.414062 298.390625 145.214844 300.261719 145.214844 302.960938 L 145.214844 326.636719 C 145.214844 329.332031 146.414062 331.207031 149.03125 331.207031 C 151.726562 331.207031 152.921875 329.332031 152.921875 326.636719 " fill-opacity="1" fill-rule="nonzero"/></g><path fill="#020303" d="M 163.917969 292.695312 L 174.691406 292.695312 C 182.097656 292.695312 184.566406 296.140625 184.566406 302.359375 L 184.566406 306.855469 C 184.566406 310.601562 183.222656 312.925781 180.152344 313.898438 C 183.894531 314.722656 185.691406 317.195312 185.691406 321.242188 L 185.691406 327.085938 C 185.691406 333.304688 182.921875 336.824219 175.441406 336.824219 L 163.917969 336.824219 Z M 171.324219 311.351562 L 173.945312 311.351562 C 176.339844 311.351562 177.460938 310.078125 177.460938 307.753906 L 177.460938 302.359375 C 177.460938 299.960938 176.339844 298.765625 173.871094 298.765625 L 171.324219 298.765625 Z M 171.324219 317.046875 L 171.324219 330.832031 L 174.617188 330.832031 C 177.085938 330.832031 178.285156 329.558594 178.285156 327.234375 L 178.285156 320.566406 C 178.285156 318.246094 177.160156 316.96875 174.542969 316.96875 L 171.324219 316.96875 Z M 171.324219 317.046875 " fill-opacity="1" fill-rule="nonzero"/><path fill="#020303" d="M 187.261719 336.902344 L 195.566406 292.769531 L 204.019531 292.769531 L 212.398438 336.902344 L 204.769531 336.902344 L 203.421875 328.808594 L 195.566406 328.808594 L 194.292969 336.902344 Z M 196.539062 322.890625 L 202.449219 322.890625 L 199.53125 305.207031 L 199.457031 305.207031 Z M 196.539062 322.890625 " fill-opacity="1" fill-rule="nonzero"/><path fill="#020303" d="M 214.867188 292.695312 L 222.273438 292.695312 L 222.273438 330.832031 L 231.175781 330.832031 L 231.175781 336.902344 L 214.867188 336.902344 Z M 214.867188 292.695312 " fill-opacity="1" fill-rule="nonzero"/><g clip-path="url(#f18f00a3d9)"><path fill="#020303" d="M 251.300781 313.300781 L 261.851562 313.300781 L 261.851562 336.902344 L 256.539062 336.902344 L 256.539062 332.105469 C 255.566406 335.402344 253.472656 337.425781 249.429688 337.425781 C 243.074219 337.425781 240.15625 332.332031 240.15625 325.511719 L 240.15625 304.160156 C 240.15625 297.265625 243.445312 292.246094 251.300781 292.246094 C 259.53125 292.246094 261.925781 296.816406 261.925781 303.335938 L 261.925781 307.230469 L 255.117188 307.230469 L 255.117188 302.734375 C 255.117188 299.960938 254.070312 298.464844 251.375 298.464844 C 248.683594 298.464844 247.5625 300.335938 247.5625 303.035156 L 247.5625 326.710938 C 247.5625 329.40625 248.683594 331.28125 251.226562 331.28125 C 253.621094 331.28125 254.894531 329.933594 254.894531 327.085938 L 254.894531 319.292969 L 251.375 319.292969 L 251.375 313.300781 Z M 251.300781 313.300781 " fill-opacity="1" fill-rule="nonzero"/></g><g clip-path="url(#cbefc32aa0)"><path fill="#020303" d="M 265.441406 325.511719 L 265.441406 304.160156 C 265.441406 297.265625 268.808594 292.246094 276.664062 292.246094 C 284.519531 292.246094 287.960938 297.265625 287.960938 304.160156 L 287.960938 325.511719 C 287.960938 332.332031 284.59375 337.425781 276.664062 337.425781 C 268.808594 337.425781 265.441406 332.332031 265.441406 325.511719 M 280.480469 326.636719 L 280.480469 302.960938 C 280.480469 300.261719 279.28125 298.390625 276.664062 298.390625 C 274.046875 298.390625 272.847656 300.261719 272.847656 302.960938 L 272.847656 326.636719 C 272.847656 329.332031 274.046875 331.207031 276.664062 331.207031 C 279.28125 331.207031 280.480469 329.332031 280.480469 326.636719 " fill-opacity="1" fill-rule="nonzero"/></g><path fill="#020303" d="M 289.308594 336.902344 L 297.613281 292.769531 L 306.066406 292.769531 L 314.445312 336.902344 L 306.8125 336.902344 L 305.46875 328.808594 L 297.613281 328.808594 L 296.339844 336.902344 Z M 298.660156 322.890625 L 304.570312 322.890625 L 301.652344 305.207031 L 301.578125 305.207031 Z M 298.660156 322.890625 " fill-opacity="1" fill-rule="nonzero"/><path fill="#020303" d="M 316.914062 292.695312 L 324.320312 292.695312 L 324.320312 330.832031 L 333.222656 330.832031 L 333.222656 336.902344 L 316.914062 336.902344 Z M 316.914062 292.695312 " fill-opacity="1" fill-rule="nonzero"/><g clip-path="url(#0e0ded34da)"><path fill="#020303" d="M 335.242188 327.386719 L 335.242188 321.464844 L 342.125 321.464844 L 342.125 327.535156 C 342.125 330.007812 343.246094 331.429688 345.792969 331.429688 C 348.109375 331.429688 349.160156 329.859375 349.160156 327.535156 L 349.160156 325.8125 C 349.160156 323.265625 348.109375 321.691406 345.867188 319.59375 L 341.527344 315.246094 C 337.261719 311.050781 335.316406 308.503906 335.316406 303.484375 L 335.316406 301.984375 C 335.316406 296.515625 338.535156 292.246094 345.71875 292.246094 C 353.125 292.246094 356.042969 295.917969 356.042969 302.285156 L 356.042969 305.882812 L 349.234375 305.882812 L 349.234375 301.984375 C 349.234375 299.4375 348.035156 298.238281 345.714844 298.238281 C 343.621094 298.238281 342.199219 299.4375 342.199219 301.910156 L 342.199219 302.808594 C 342.199219 305.28125 343.546875 306.707031 345.714844 308.804688 L 350.503906 313.523438 C 354.542969 317.644531 356.488281 320.117188 356.488281 324.988281 L 356.488281 327.160156 C 356.488281 333.230469 353.273438 337.5 345.640625 337.5 C 338.160156 337.425781 335.242188 333.15625 335.242188 327.386719 " fill-opacity="1" fill-rule="nonzero"/></g><path fill="#020303" d="M 18.40625 292.695312 L 38.15625 292.695312 L 38.15625 298.765625 L 32.023438 298.765625 L 32.023438 336.902344 L 24.542969 336.902344 L 24.542969 298.765625 L 18.40625 298.765625 Z M 18.40625 292.695312 " fill-opacity="1" fill-rule="nonzero"/><path fill="#020303" d="M 55.515625 317.421875 L 48.332031 317.421875 L 48.332031 336.902344 L 40.925781 336.902344 L 40.925781 292.695312 L 48.332031 292.695312 L 48.332031 311.425781 L 55.515625 311.425781 L 55.515625 292.695312 L 62.996094 292.695312 L 62.996094 336.902344 L 55.515625 336.902344 Z M 55.515625 317.421875 " fill-opacity="1" fill-rule="nonzero"/><path fill="#020303" d="M 66.585938 292.695312 L 84.316406 292.695312 L 84.316406 298.765625 L 74.070312 298.765625 L 74.070312 311.425781 L 81.398438 311.425781 L 81.398438 317.421875 L 74.070312 317.421875 L 74.070312 330.832031 L 84.316406 330.832031 L 84.316406 336.902344 L 66.585938 336.902344 Z M 66.585938 292.695312 " fill-opacity="1" fill-rule="nonzero"/><path fill="#63b335" d="M 130.628906 118.195312 C 133.46875 113.398438 136.835938 109.054688 140.726562 105.15625 L 107.585938 68.742188 C 99.207031 76.761719 92.097656 85.976562 86.488281 96.242188 Z M 130.628906 118.195312 " fill-opacity="1" fill-rule="nonzero"/><path fill="#e5b735" d="M 211.875 92.496094 C 216.886719 94.816406 221.527344 97.738281 225.789062 101.1875 L 259.007812 64.847656 C 250.253906 57.28125 240.304688 51.0625 229.53125 46.417969 Z M 211.875 92.496094 " fill-opacity="1" fill-rule="nonzero"/><path fill="#c51c2e" d="M 287.960938 103.433594 L 243.894531 125.460938 C 245.988281 130.40625 247.488281 135.578125 248.308594 141.046875 L 297.3125 136.402344 C 295.890625 124.789062 292.675781 113.699219 287.960938 103.433594 " fill-opacity="1" fill-rule="nonzero"/><path fill="#4c9f37" d="M 240.753906 119.019531 L 284.820312 97.066406 C 279.355469 86.875 272.398438 77.660156 264.246094 69.71875 L 231.027344 106.054688 C 234.769531 109.953125 238.058594 114.296875 240.753906 119.019531 " fill-opacity="1" fill-rule="nonzero"/><path fill="#3f7f45" d="M 121.875 150.410156 C 121.875 149.4375 121.875 148.464844 121.949219 147.414062 L 72.945312 142.996094 C 72.796875 145.390625 72.722656 147.863281 72.722656 150.335938 C 72.722656 159.777344 73.917969 168.917969 76.089844 177.609375 L 123.445312 163.972656 C 122.398438 159.703125 121.875 155.132812 121.875 150.410156 " fill-opacity="1" fill-rule="nonzero"/><path fill="#fcc310" d="M 234.617188 190.722656 C 231.101562 194.992188 227.136719 198.738281 222.648438 201.960938 L 248.535156 243.917969 C 258.109375 237.398438 266.714844 229.457031 273.894531 220.316406 Z M 234.617188 190.722656 " fill-opacity="1" fill-rule="nonzero"/><path fill="#e8422e" d="M 248.984375 150.410156 C 248.984375 155.058594 248.460938 159.628906 247.5625 163.972656 L 294.917969 177.609375 C 297.089844 168.917969 298.210938 159.777344 298.210938 150.410156 C 298.210938 148.089844 298.136719 145.765625 297.984375 143.445312 L 248.984375 148.089844 C 248.984375 148.839844 248.984375 149.664062 248.984375 150.410156 " fill-opacity="1" fill-rule="nonzero"/><path fill="#f59d2d" d="M 137.0625 191.695312 L 97.859375 221.515625 C 105.117188 230.507812 113.792969 238.300781 123.445312 244.742188 L 149.332031 202.859375 C 144.765625 199.636719 140.652344 195.890625 137.0625 191.695312 " fill-opacity="1" fill-rule="nonzero"/><path fill="#1896d4" d="M 122.621094 140.371094 C 123.519531 134.828125 125.089844 129.507812 127.335938 124.5625 L 83.269531 102.535156 C 78.40625 112.875 75.039062 124.113281 73.542969 135.953125 Z M 122.621094 140.371094 " fill-opacity="1" fill-rule="nonzero"/><path fill="#a31b43" d="M 242.472656 247.738281 L 216.664062 205.855469 C 211.949219 208.480469 206.9375 210.578125 201.550781 212 L 210.679688 260.476562 C 222.050781 257.855469 232.75 253.507812 242.472656 247.738281 " fill-opacity="1" fill-rule="nonzero"/><path fill="#2ebce0" d="M 245.691406 170.792969 C 243.96875 175.8125 241.652344 180.605469 238.808594 184.953125 L 278.085938 214.621094 C 284.445312 205.40625 289.53125 195.21875 292.972656 184.351562 Z M 245.691406 170.792969 " fill-opacity="1" fill-rule="nonzero"/><path fill="#ed6930" d="M 194.59375 213.425781 C 191.601562 213.875 188.535156 214.097656 185.390625 214.097656 C 182.921875 214.097656 180.453125 213.949219 177.984375 213.648438 L 168.855469 262.125 C 174.242188 262.949219 179.78125 263.324219 185.390625 263.324219 C 191.601562 263.324219 197.734375 262.800781 203.644531 261.824219 Z M 194.59375 213.425781 " fill-opacity="1" fill-rule="nonzero"/><g clip-path="url(#9a05befbe4)"><path fill="#e6243c" d="M 189.507812 86.875 C 194.96875 87.25 200.277344 88.300781 205.214844 89.949219 L 222.871094 43.945312 C 212.324219 40.199219 201.101562 38.023438 189.429688 37.574219 L 189.429688 86.875 Z M 189.507812 86.875 " fill-opacity="1" fill-rule="nonzero"/></g><path fill="#de1868" d="M 171.027344 212.449219 C 165.492188 211.175781 160.253906 209.152344 155.390625 206.53125 L 129.503906 248.488281 C 139.457031 254.183594 150.378906 258.453125 161.898438 260.925781 Z M 171.027344 212.449219 " fill-opacity="1" fill-rule="nonzero"/><g clip-path="url(#072bcdc529)"><path fill="#1a496a" d="M 166.3125 89.648438 C 171.402344 88 176.789062 87.027344 182.398438 86.800781 L 182.398438 37.5 C 170.578125 37.800781 159.207031 39.972656 148.507812 43.644531 Z M 166.3125 89.648438 " fill-opacity="1" fill-rule="nonzero"/></g><path fill="#c99a2d" d="M 132.722656 186 C 129.582031 181.355469 127.035156 176.335938 125.242188 170.941406 L 77.957031 184.503906 C 81.550781 195.816406 86.863281 206.304688 93.59375 215.820312 Z M 132.722656 186 " fill-opacity="1" fill-rule="nonzero"/><path fill="#02699e" d="M 146.039062 100.4375 C 150.230469 97.140625 154.792969 94.367188 159.65625 92.195312 L 141.847656 46.191406 C 131.226562 50.613281 121.5 56.679688 112.820312 64.023438 Z M 146.039062 100.4375 " fill-opacity="1" fill-rule="nonzero"/><g clip-path="url(#315cba23f4)"><path fill="#4c9f38" d="M 147.40625 107.128906 L 227.585938 107.128906 L 227.585938 187.308594 L 147.40625 187.308594 Z M 147.40625 107.128906 " fill-opacity="1" fill-rule="nonzero"/></g><path fill="#fff5f0" d="M 158.816406 130.253906 C 161.558594 130.253906 162.753906 128.808594 162.753906 126.566406 L 162.753906 124.171875 C 162.753906 122.679688 162.105469 121.730469 160.757812 121.433594 C 161.855469 121.082031 162.601562 120.1875 162.601562 118.792969 L 162.601562 117.394531 C 162.601562 115.105469 161.507812 113.707031 159.015625 113.707031 C 156.226562 113.707031 155.226562 115.351562 155.226562 117.746094 L 155.226562 119.191406 L 157.71875 119.191406 L 157.71875 117.546875 C 157.71875 116.550781 158.019531 115.949219 158.867188 115.949219 C 159.714844 115.949219 160.011719 116.5 160.011719 117.394531 L 160.011719 119.140625 C 160.011719 119.988281 159.464844 120.4375 158.566406 120.4375 L 157.519531 120.4375 L 157.519531 122.527344 L 158.667969 122.527344 C 159.613281 122.527344 160.011719 122.976562 160.011719 123.824219 L 160.011719 126.515625 C 160.011719 127.363281 159.613281 127.960938 158.816406 127.960938 C 157.871094 127.960938 157.570312 127.363281 157.570312 126.367188 L 157.570312 124.074219 L 155.078125 124.074219 L 155.078125 126.214844 C 155.078125 128.660156 156.074219 130.253906 158.816406 130.253906 " fill-opacity="1" fill-rule="nonzero"/><path fill="#fff5f0" d="M 214.378906 157.261719 C 214.378906 155.019531 212.933594 153.175781 210.742188 153.175781 C 209.644531 153.175781 208.300781 154.371094 207.601562 155.117188 C 206.902344 154.371094 205.65625 153.175781 204.5625 153.175781 C 202.371094 153.175781 200.824219 155.019531 200.824219 157.261719 C 200.824219 158.40625 201.273438 159.40625 201.96875 160.152344 L 207.601562 165.78125 L 213.234375 160.152344 C 213.929688 159.40625 214.378906 158.40625 214.378906 157.261719 Z M 214.378906 157.261719 " fill-opacity="1" fill-rule="nonzero"/><path fill="#fff5f0" d="M 190.460938 174.953125 C 189.960938 174.902344 189.613281 174.601562 189.5625 174.203125 L 186.722656 157.5625 L 182.386719 165.582031 C 182.1875 165.933594 181.789062 166.132812 181.390625 166.03125 C 180.992188 165.980469 180.691406 165.632812 180.640625 165.234375 L 178.796875 152.378906 L 175.460938 159.902344 C 175.308594 160.25 174.960938 160.449219 174.613281 160.449219 L 161.558594 160.449219 C 161.058594 160.449219 160.609375 160.050781 160.609375 159.503906 C 160.609375 159.007812 161.007812 158.558594 161.558594 158.558594 L 174.015625 158.558594 L 178.449219 148.640625 C 178.597656 148.242188 178.996094 148.042969 179.398438 148.09375 C 179.796875 148.140625 180.144531 148.492188 180.195312 148.890625 L 182.085938 162.144531 L 186.375 154.222656 C 186.574219 153.875 186.921875 153.675781 187.320312 153.773438 C 187.71875 153.824219 188.015625 154.121094 188.066406 154.519531 L 190.707031 169.917969 L 200.324219 137.925781 C 200.425781 137.578125 200.773438 137.277344 201.125 137.277344 C 201.523438 137.230469 201.871094 137.476562 202.019531 137.777344 L 207.101562 148.292969 C 207.300781 148.742188 207.152344 149.289062 206.65625 149.539062 C 206.207031 149.738281 205.65625 149.585938 205.410156 149.089844 L 201.371094 140.71875 L 191.304688 174.203125 C 191.207031 174.703125 190.859375 174.953125 190.460938 174.953125 Z M 190.460938 174.953125 " fill-opacity="1" fill-rule="nonzero"/><path fill="#fff5f0" d="M 171.972656 116.898438 L 173.515625 116.898438 L 173.515625 120.386719 L 172.71875 120.386719 L 172.71875 119.6875 C 172.570312 120.1875 172.269531 120.484375 171.671875 120.484375 C 170.726562 120.484375 170.277344 119.738281 170.277344 118.742188 L 170.277344 115.550781 C 170.277344 114.507812 170.777344 113.808594 171.921875 113.808594 C 173.117188 113.808594 173.515625 114.507812 173.515625 115.453125 L 173.515625 116.050781 L 172.519531 116.050781 L 172.519531 115.402344 C 172.519531 115.003906 172.371094 114.753906 171.972656 114.753906 C 171.574219 114.753906 171.421875 115.054688 171.421875 115.453125 L 171.421875 118.992188 C 171.421875 119.390625 171.574219 119.6875 171.972656 119.6875 C 172.320312 119.6875 172.519531 119.488281 172.519531 119.039062 L 172.519531 117.894531 L 172.019531 117.894531 L 172.019531 116.898438 Z M 174.265625 118.742188 L 174.265625 115.550781 C 174.265625 114.507812 174.761719 113.808594 175.910156 113.808594 C 177.054688 113.808594 177.601562 114.554688 177.601562 115.550781 L 177.601562 118.742188 C 177.601562 119.738281 177.105469 120.484375 175.910156 120.484375 C 174.761719 120.484375 174.265625 119.738281 174.265625 118.742188 Z M 176.507812 118.890625 L 176.507812 115.351562 C 176.507812 114.953125 176.355469 114.65625 175.957031 114.65625 C 175.558594 114.65625 175.410156 114.953125 175.410156 115.351562 L 175.410156 118.890625 C 175.410156 119.289062 175.558594 119.589844 175.957031 119.589844 C 176.308594 119.589844 176.507812 119.289062 176.507812 118.890625 Z M 178.300781 118.742188 L 178.300781 115.550781 C 178.300781 114.507812 178.796875 113.808594 179.945312 113.808594 C 181.089844 113.808594 181.640625 114.554688 181.640625 115.550781 L 181.640625 118.742188 C 181.640625 119.738281 181.140625 120.484375 179.945312 120.484375 C 178.796875 120.484375 178.300781 119.738281 178.300781 118.742188 Z M 180.542969 118.890625 L 180.542969 115.351562 C 180.542969 114.953125 180.394531 114.65625 179.996094 114.65625 C 179.597656 114.65625 179.445312 114.953125 179.445312 115.351562 L 179.445312 118.890625 C 179.445312 119.289062 179.597656 119.589844 179.996094 119.589844 C 180.394531 119.589844 180.542969 119.289062 180.542969 118.890625 Z M 185.675781 115.601562 L 185.675781 118.640625 C 185.675781 119.636719 185.277344 120.386719 184.082031 120.386719 L 182.386719 120.386719 L 182.386719 113.859375 L 184.082031 113.859375 C 185.226562 113.859375 185.675781 114.605469 185.675781 115.601562 Z M 183.929688 119.488281 C 184.378906 119.488281 184.578125 119.238281 184.578125 118.839844 L 184.578125 115.402344 C 184.578125 115.003906 184.429688 114.753906 183.929688 114.753906 L 183.484375 114.753906 L 183.484375 119.488281 Z M 190.0625 117.546875 L 189.015625 117.546875 L 189.015625 120.4375 L 187.917969 120.4375 L 187.917969 113.90625 L 189.015625 113.90625 L 189.015625 116.699219 L 190.0625 116.699219 L 190.0625 113.90625 L 191.15625 113.90625 L 191.15625 120.4375 L 190.0625 120.4375 Z M 191.953125 113.859375 L 194.59375 113.859375 L 194.59375 114.753906 L 193.050781 114.753906 L 193.050781 116.648438 L 194.148438 116.648438 L 194.148438 117.546875 L 193.050781 117.546875 L 193.050781 119.539062 L 194.59375 119.539062 L 194.59375 120.4375 L 191.953125 120.4375 Z M 195.09375 120.4375 L 196.339844 113.90625 L 197.585938 113.90625 L 198.832031 120.4375 L 197.683594 120.4375 L 197.484375 119.238281 L 196.339844 119.238281 L 196.140625 120.4375 Z M 196.488281 118.34375 L 197.386719 118.34375 L 196.9375 115.703125 Z M 199.378906 113.859375 L 200.476562 113.859375 L 200.476562 119.488281 L 201.769531 119.488281 L 201.769531 120.386719 L 199.378906 120.386719 Z M 201.621094 113.859375 L 204.5625 113.859375 L 204.5625 114.753906 L 203.664062 114.753906 L 203.664062 120.386719 L 202.570312 120.386719 L 202.570312 114.753906 L 201.671875 114.753906 L 201.671875 113.859375 Z M 207.351562 117.546875 L 206.304688 117.546875 L 206.304688 120.4375 L 205.210938 120.4375 L 205.210938 113.90625 L 206.304688 113.90625 L 206.304688 116.699219 L 207.351562 116.699219 L 207.351562 113.90625 L 208.449219 113.90625 L 208.449219 120.4375 L 207.351562 120.4375 Z M 207.351562 117.546875 " fill-opacity="1" fill-rule="nonzero"/><path fill="#fff5f0" d="M 170.128906 130.003906 L 171.375 123.476562 L 172.621094 123.476562 L 173.867188 130.003906 L 172.71875 130.003906 L 172.519531 128.808594 L 171.375 128.808594 L 171.175781 130.003906 Z M 171.523438 127.960938 L 172.421875 127.960938 L 171.972656 125.320312 Z M 175.261719 125.917969 L 175.261719 130.054688 L 174.3125 130.054688 L 174.3125 123.527344 L 175.410156 123.527344 L 176.605469 127.261719 L 176.605469 123.527344 L 177.503906 123.527344 L 177.503906 130.054688 L 176.554688 130.054688 Z M 181.589844 125.21875 L 181.589844 128.257812 C 181.589844 129.257812 181.191406 130.003906 179.996094 130.003906 L 178.300781 130.003906 L 178.300781 123.476562 L 179.996094 123.476562 C 181.191406 123.476562 181.589844 124.222656 181.589844 125.21875 Z M 179.84375 129.105469 C 180.292969 129.105469 180.492188 128.859375 180.492188 128.457031 L 180.492188 125.019531 C 180.492188 124.621094 180.34375 124.371094 179.84375 124.371094 L 179.398438 124.371094 L 179.398438 129.105469 Z M 185.824219 125.96875 L 185.226562 130.003906 L 184.179688 130.003906 L 183.285156 123.476562 L 184.328125 123.476562 L 184.828125 127.613281 L 185.375 123.476562 L 186.273438 123.476562 L 186.871094 127.613281 L 187.371094 123.476562 L 188.316406 123.476562 L 187.46875 130.003906 L 186.421875 130.003906 Z M 188.914062 123.476562 L 191.554688 123.476562 L 191.554688 124.371094 L 190.011719 124.371094 L 190.011719 126.265625 L 191.105469 126.265625 L 191.105469 127.164062 L 190.011719 127.164062 L 190.011719 129.15625 L 191.554688 129.15625 L 191.554688 130.054688 L 188.914062 130.054688 Z M 192.253906 123.476562 L 193.347656 123.476562 L 193.347656 129.105469 L 194.644531 129.105469 L 194.644531 130.003906 L 192.253906 130.003906 Z M 195.242188 123.476562 L 196.339844 123.476562 L 196.339844 129.105469 L 197.636719 129.105469 L 197.636719 130.003906 L 195.242188 130.003906 Z M 197.535156 126.167969 L 199.082031 126.167969 L 199.082031 127.0625 L 197.535156 127.0625 Z M 199.726562 123.476562 L 201.324219 123.476562 C 202.417969 123.476562 202.769531 123.972656 202.769531 124.921875 L 202.769531 125.570312 C 202.769531 126.117188 202.570312 126.464844 202.121094 126.613281 C 202.667969 126.765625 202.917969 127.113281 202.917969 127.710938 L 202.917969 128.558594 C 202.917969 129.503906 202.519531 130.003906 201.421875 130.003906 L 199.726562 130.003906 Z M 200.824219 126.214844 L 201.222656 126.214844 C 201.570312 126.214844 201.722656 126.015625 201.722656 125.667969 L 201.722656 124.871094 C 201.722656 124.523438 201.570312 124.324219 201.171875 124.324219 L 200.773438 124.324219 Z M 200.824219 127.0625 L 200.824219 129.105469 L 201.324219 129.105469 C 201.671875 129.105469 201.871094 128.90625 201.871094 128.558594 L 201.871094 127.5625 C 201.871094 127.214844 201.722656 127.015625 201.324219 127.015625 L 200.824219 127.015625 Z M 203.613281 123.476562 L 206.257812 123.476562 L 206.257812 124.371094 L 204.710938 124.371094 L 204.710938 126.265625 L 205.808594 126.265625 L 205.808594 127.164062 L 204.710938 127.164062 L 204.710938 129.15625 L 206.257812 129.15625 L 206.257812 130.054688 L 203.613281 130.054688 Z M 206.902344 123.476562 L 208 123.476562 L 208 130.003906 L 206.902344 130.003906 Z M 209.746094 125.917969 L 209.746094 130.054688 L 208.796875 130.054688 L 208.796875 123.527344 L 209.894531 123.527344 L 211.089844 127.261719 L 211.089844 123.527344 L 211.988281 123.527344 L 211.988281 130.054688 L 211.039062 130.054688 Z M 214.429688 126.515625 L 215.972656 126.515625 L 215.972656 130.003906 L 215.175781 130.003906 L 215.175781 129.304688 C 215.027344 129.804688 214.726562 130.101562 214.128906 130.101562 C 213.183594 130.101562 212.734375 129.355469 212.734375 128.359375 L 212.734375 125.171875 C 212.734375 124.125 213.234375 123.425781 214.378906 123.425781 C 215.574219 123.425781 215.972656 124.125 215.972656 125.070312 L 215.972656 125.667969 L 214.976562 125.667969 L 214.976562 125.019531 C 214.976562 124.621094 214.828125 124.371094 214.429688 124.371094 C 214.03125 124.371094 213.878906 124.671875 213.878906 125.070312 L 213.878906 128.609375 C 213.878906 129.007812 214.03125 129.304688 214.429688 129.304688 C 214.777344 129.304688 214.976562 129.105469 214.976562 128.660156 L 214.976562 127.511719 L 214.476562 127.511719 L 214.476562 126.515625 Z M 214.429688 126.515625 " fill-opacity="1" fill-rule="nonzero"/></svg>