<svg xmlns="http://www.w3.org/2000/svg" xmlns:xlink="http://www.w3.org/1999/xlink" width="1080" zoomAndPan="magnify" viewBox="0 0 810 809.999993" height="1080" preserveAspectRatio="xMidYMid meet" version="1.0"><defs><g/><clipPath id="ce498f5a85"><path d="M 43 152.199219 L 767 152.199219 L 767 753.699219 L 43 753.699219 Z M 43 152.199219 " clip-rule="nonzero"/></clipPath></defs><rect x="-81" width="972" fill="#ffffff" y="-80.999999" height="971.999992" fill-opacity="1"/><rect x="-81" width="972" fill="#06153d" y="-80.999999" height="971.999992" fill-opacity="1"/><g clip-path="url(#ce498f5a85)"><path fill="#ff0000" d="M 763.253906 466.570312 C 732.773438 682.742188 606.261719 753.710938 406.003906 753.710938 C 205.742188 753.710938 77.386719 682.742188 46.898438 466.570312 C 17.480469 257.820312 188.28125 160.890625 308.25 173.6875 C 321.621094 167.089844 347.46875 152.191406 404.691406 152.191406 C 461.917969 152.191406 480.722656 163.96875 501.90625 173.6875 C 623.78125 160.6875 792.457031 259.480469 763.253906 466.570312 " fill-opacity="1" fill-rule="nonzero"/></g><path fill="#ffffff" d="M 758.910156 354.050781 C 744.523438 370.066406 715.617188 386.480469 676.617188 400.066406 C 627.246094 417.273438 539.75 437.777344 403.285156 437.777344 C 266.976562 437.777344 180.316406 417.265625 131.613281 400.066406 C 93.609375 386.632812 65.367188 370.382812 51.140625 354.457031 C 51.683594 352.261719 52.25 350.078125 52.847656 347.921875 C 56.355469 352.425781 61.226562 357.09375 67.308594 361.765625 C 82.808594 373.65625 105.675781 385.125 133.433594 394.929688 C 181.722656 411.996094 267.742188 432.332031 403.285156 432.332031 C 538.984375 432.332031 625.859375 411.992188 674.832031 394.925781 C 703.03125 385.101562 726.296875 373.636719 742.113281 361.75 C 748.507812 356.953125 753.578125 352.160156 757.199219 347.550781 C 757.785156 349.695312 758.359375 351.863281 758.910156 354.050781 " fill-opacity="1" fill-rule="nonzero"/><path fill="#e4fbff" d="M 390.207031 538.839844 C 390.207031 541.464844 390.289062 550.277344 390.289062 550.277344 C 390.984375 550.277344 391.757812 550.355469 392.453125 550.355469 C 393.074219 550.355469 393.613281 550.277344 400.957031 550.355469 C 401.964844 550.355469 402.042969 550.355469 402.347656 551.210938 C 402.425781 551.515625 402.507812 551.976562 402.507812 552.671875 C 402.507812 553.375 402.507812 553.835938 402.347656 554.140625 C 402.117188 554.683594 401.652344 554.761719 401.039062 554.761719 C 398.875 554.761719 396.703125 554.84375 394.460938 554.761719 C 394.460938 554.761719 389.128906 554.84375 387.039062 554.84375 C 386.191406 554.84375 385.496094 554.683594 385.496094 553.453125 C 385.648438 548.347656 385.496094 544.714844 385.417969 542.082031 C 385.339844 539.917969 385.417969 537.371094 385.960938 535.128906 C 386.265625 533.730469 387.351562 532.574219 388.585938 531.335938 C 389.363281 530.640625 389.824219 530.484375 394 526.621094 C 395.15625 525.695312 396.433594 524.394531 397.167969 522.597656 C 397.582031 521.605469 397.480469 520.515625 397.558594 519.429688 C 397.558594 515.796875 397.558594 512.085938 397.328125 508.375 C 397.328125 506.90625 397.246094 506.828125 397.246094 506.441406 C 397.246094 505.128906 395.699219 504.351562 394.230469 504.351562 C 390.519531 504.511719 390.519531 507.058594 390.519531 509.691406 C 390.519531 511.855469 390.445312 514.558594 390.445312 517.035156 C 390.445312 517.265625 390.207031 517.496094 389.976562 517.496094 C 388.898438 517.652344 387.972656 517.652344 387.503906 517.652344 C 386.191406 517.652344 385.648438 517.34375 385.648438 516.875 C 385.648438 516.644531 385.722656 516.414062 385.722656 510.691406 C 385.722656 508.0625 385.648438 505.28125 386.65625 503.195312 C 388.203125 500.953125 391.292969 499.945312 393.847656 499.945312 C 394.542969 499.945312 395.316406 500.027344 396.785156 500.257812 C 399.722656 500.257812 402.042969 503.8125 402.117188 506.515625 C 402.117188 507.449219 402.117188 508.296875 402.347656 514.171875 C 402.425781 516.339844 402.425781 519.351562 402.507812 520.515625 C 402.507812 525.535156 398.273438 528.492188 394.621094 532.34375 C 392.660156 534.40625 390.207031 535.589844 390.207031 538.839844 " fill-opacity="1" fill-rule="nonzero"/><path fill="#e4fbff" d="M 394.21875 504.015625 C 395.878906 503.980469 397.585938 504.921875 397.585938 506.441406 C 397.585938 506.5625 397.589844 506.648438 397.601562 506.765625 C 397.625 507.015625 397.660156 507.386719 397.660156 508.375 C 397.890625 512.074219 397.890625 515.816406 397.890625 519.429688 C 397.875 519.730469 397.863281 520 397.855469 520.277344 C 397.835938 521.089844 397.804688 521.933594 397.484375 522.730469 C 396.851562 524.269531 395.777344 525.625 394.207031 526.886719 C 391.203125 529.664062 390.113281 530.535156 389.457031 531.054688 C 389.207031 531.253906 389.023438 531.398438 388.8125 531.585938 C 387.609375 532.792969 386.578125 533.90625 386.289062 535.195312 C 385.835938 537.066406 385.65625 539.375 385.757812 542.070312 L 385.785156 543.011719 C 385.863281 545.511719 385.964844 548.925781 385.832031 553.457031 C 385.832031 554.355469 386.1875 554.503906 387.039062 554.503906 C 389.101562 554.503906 400.3125 554.421875 401.039062 554.421875 C 401.671875 554.421875 401.902344 554.328125 402.039062 554.011719 C 402.167969 553.757812 402.167969 553.300781 402.167969 552.671875 C 402.167969 552.136719 402.117188 551.671875 402.019531 551.289062 C 401.804688 550.695312 401.804688 550.695312 400.957031 550.695312 C 395.054688 550.628906 393.582031 550.667969 392.871094 550.683594 C 392.699219 550.691406 392.574219 550.695312 392.453125 550.695312 C 392.101562 550.695312 391.726562 550.671875 391.355469 550.65625 C 390.992188 550.632812 390.632812 550.617188 390.289062 550.617188 L 389.953125 550.617188 C 389.953125 550.617188 389.875 541.4375 389.875 538.839844 C 389.875 536.207031 391.371094 534.863281 392.964844 533.445312 C 393.433594 533.019531 393.921875 532.585938 394.371094 532.109375 C 395.074219 531.375 395.796875 530.664062 396.496094 529.980469 C 399.410156 527.132812 402.167969 524.441406 402.167969 520.515625 C 402.128906 519.898438 402.105469 518.699219 402.082031 517.429688 C 402.066406 516.34375 401.78125 507.4375 401.78125 506.515625 C 401.703125 503.855469 399.382812 500.597656 396.785156 500.597656 C 395.320312 500.363281 394.542969 500.285156 393.847656 500.285156 C 391.644531 500.285156 388.515625 501.09375 386.933594 503.386719 C 386.058594 505.21875 386.058594 507.738281 386.0625 510.164062 L 386.0625 510.691406 C 386.0625 515.464844 386.011719 516.4375 385.996094 516.757812 C 385.988281 516.8125 385.988281 516.84375 385.988281 516.875 C 385.988281 517.078125 386.382812 517.3125 387.503906 517.3125 C 387.949219 517.3125 388.875 517.3125 389.933594 517.164062 C 390.027344 517.160156 390.105469 517.078125 390.105469 517.035156 C 390.105469 515.753906 390.179688 510.730469 390.179688 509.691406 C 390.179688 507.109375 390.179688 504.097656 394.21875 504.015625 Z M 387.039062 555.179688 C 386.476562 555.179688 385.160156 555.179688 385.160156 553.453125 C 385.292969 548.925781 385.1875 545.519531 385.109375 543.03125 L 385.078125 542.09375 C 384.984375 539.339844 385.164062 536.96875 385.632812 535.042969 C 385.957031 533.585938 387.050781 532.394531 388.351562 531.101562 C 388.582031 530.886719 388.78125 530.734375 389.039062 530.523438 C 389.683594 530.015625 390.769531 529.15625 393.773438 526.371094 C 395.269531 525.175781 396.269531 523.902344 396.855469 522.472656 C 397.140625 521.785156 397.15625 521.046875 397.183594 520.253906 C 397.191406 519.972656 397.203125 519.691406 397.21875 519.40625 C 397.21875 515.824219 397.21875 512.097656 396.988281 508.390625 C 396.988281 507.421875 396.953125 507.058594 396.929688 506.828125 C 396.917969 506.6875 396.90625 506.585938 396.90625 506.441406 C 396.90625 505.359375 395.519531 504.691406 394.230469 504.691406 C 390.859375 504.832031 390.859375 507.082031 390.859375 509.691406 C 390.859375 510.734375 390.777344 515.757812 390.777344 517.035156 C 390.777344 517.453125 390.402344 517.835938 389.976562 517.835938 C 388.921875 517.988281 387.964844 517.988281 387.503906 517.988281 C 386.050781 517.988281 385.3125 517.617188 385.3125 516.875 C 385.3125 516.835938 385.316406 516.792969 385.316406 516.71875 C 385.332031 516.402344 385.390625 515.449219 385.390625 510.691406 L 385.390625 510.164062 C 385.382812 507.65625 385.378906 505.066406 386.351562 503.046875 C 388.105469 500.5 391.480469 499.609375 393.847656 499.609375 C 394.574219 499.609375 395.386719 499.691406 396.839844 499.925781 C 399.824219 499.925781 402.371094 503.523438 402.457031 506.511719 C 402.457031 507.433594 402.457031 508.289062 402.6875 514.160156 C 402.722656 515.152344 402.800781 519.871094 402.839844 520.492188 C 402.84375 524.722656 399.988281 527.511719 396.964844 530.46875 C 396.269531 531.144531 395.550781 531.847656 394.863281 532.574219 C 394.390625 533.070312 393.890625 533.519531 393.410156 533.945312 C 391.875 535.320312 390.546875 536.507812 390.546875 538.839844 C 390.546875 541.144531 390.609375 548.324219 390.621094 549.945312 C 390.875 549.957031 391.128906 549.96875 391.390625 549.976562 C 391.75 550 392.113281 550.019531 392.453125 550.019531 C 392.570312 550.019531 392.6875 550.019531 392.851562 550.011719 C 393.5625 549.996094 395.050781 549.957031 400.957031 550.019531 C 402.042969 550.019531 402.292969 550.058594 402.667969 551.089844 C 402.789062 551.570312 402.84375 552.074219 402.84375 552.671875 C 402.84375 553.425781 402.84375 553.914062 402.652344 554.292969 C 402.335938 555.035156 401.652344 555.101562 401.039062 555.101562 C 400.320312 555.101562 399.601562 555.105469 398.878906 555.117188 C 397.445312 555.136719 395.960938 555.152344 394.449219 555.101562 C 394.417969 555.101562 389.105469 555.179688 387.039062 555.179688 " fill-opacity="1" fill-rule="nonzero"/><path fill="#e4fbff" d="M 425.390625 539.765625 C 425.15625 544.945312 426.085938 549.8125 423.457031 553.0625 L 422.914062 553.527344 C 421.210938 554.761719 418.8125 555.226562 417.113281 555.226562 C 416.417969 555.226562 415.644531 555.226562 414.949219 555.074219 C 412.324219 554.683594 409.691406 552.910156 409.074219 550.046875 C 408.84375 548.578125 408.765625 547.804688 408.765625 546.878906 C 408.84375 542.855469 408.6875 540.769531 408.6875 538.136719 C 408.6875 537.292969 411.238281 537.445312 412.011719 537.445312 C 412.628906 537.445312 413.171875 537.601562 413.480469 538.21875 L 413.480469 538.839844 C 413.480469 540.921875 413.632812 543.011719 413.632812 545.328125 C 413.632812 548.578125 413.632812 550.972656 417.113281 550.972656 C 418.972656 550.972656 420.363281 549.96875 420.363281 547.960938 L 420.59375 540.382812 C 420.515625 531.570312 419.820312 529.789062 415.957031 529.789062 L 410.234375 529.789062 C 409.691406 529.949219 409.378906 529.789062 409.226562 529.480469 C 408.996094 529.175781 408.996094 528.710938 409.074219 528.320312 C 408.84375 521.128906 408.765625 513.867188 408.84375 505.667969 L 408.84375 501.570312 C 408.84375 501.335938 408.84375 501.03125 409.074219 500.875 C 409.148438 500.800781 409.226562 500.722656 409.378906 500.722656 C 413.402344 500.722656 417.425781 500.640625 422.140625 500.640625 C 423.457031 500.640625 425.390625 500.410156 425.390625 502.261719 C 425.390625 502.804688 425.308594 503.507812 425.308594 504.121094 L 425.308594 504.664062 C 425.308594 505.4375 420.441406 505.207031 419.898438 505.207031 C 417.425781 505.207031 414.023438 505.128906 413.792969 505.128906 C 413.792969 510.617188 413.867188 525.304688 413.867188 525.304688 C 415.03125 525.230469 416.417969 525.230469 417.425781 525.230469 C 420.75 525.230469 423.992188 526.542969 424.925781 530.101562 C 425 530.179688 425 530.332031 425 530.410156 C 425.230469 531.648438 425.390625 533.117188 425.390625 535.671875 L 425.390625 539.765625 " fill-opacity="1" fill-rule="nonzero"/><path fill="#e4fbff" d="M 411.148438 537.769531 C 410.398438 537.769531 409.328125 537.8125 409.054688 538.085938 C 409.023438 539.128906 409.046875 540.035156 409.070312 540.996094 C 409.105469 542.578125 409.148438 544.367188 409.105469 546.882812 C 409.105469 547.773438 409.175781 548.53125 409.410156 549.996094 C 410.011719 552.785156 412.652344 554.394531 415 554.738281 C 415.683594 554.894531 416.441406 554.894531 417.113281 554.894531 C 418.734375 554.894531 421.054688 554.457031 422.710938 553.253906 L 423.214844 552.824219 C 425.09375 550.480469 425.0625 547.261719 425.023438 543.53125 C 425.003906 542.3125 424.992188 541.042969 425.050781 539.757812 L 425.050781 535.671875 C 425.050781 532.878906 424.859375 531.472656 424.671875 530.472656 L 424.667969 530.410156 C 424.667969 530.382812 424.667969 530.320312 424.65625 530.296875 L 424.585938 530.230469 L 424.597656 530.183594 C 423.507812 526.015625 419.214844 525.5625 417.425781 525.5625 C 416.417969 525.5625 415.039062 525.5625 413.886719 525.644531 L 413.492188 525.664062 L 413.492188 504.789062 C 413.492188 504.789062 420.089844 504.871094 420.269531 504.871094 C 423.925781 504.972656 424.777344 504.730469 424.972656 504.597656 L 424.972656 504.121094 C 424.972656 503.792969 424.992188 503.449219 425.011719 503.109375 C 425.035156 502.8125 425.050781 502.523438 425.050781 502.261719 C 425.050781 501.875 424.953125 501.585938 424.75 501.386719 C 424.304688 500.945312 423.367188 500.964844 422.546875 500.976562 C 422.40625 500.976562 411.3125 501.058594 409.378906 501.058594 C 409.363281 501.058594 409.328125 501.09375 409.3125 501.109375 L 409.261719 501.15625 C 409.175781 501.210938 409.175781 501.414062 409.175781 501.570312 L 409.175781 505.667969 C 409.105469 513.828125 409.175781 521.023438 409.414062 528.308594 L 409.414062 528.347656 L 409.402344 528.390625 C 409.328125 528.773438 409.363281 529.09375 409.5 529.28125 C 409.574219 529.417969 409.667969 529.601562 410.144531 529.46875 L 410.234375 529.457031 L 415.957031 529.457031 C 420.226562 529.457031 420.851562 531.785156 420.933594 540.382812 L 420.699219 547.96875 C 420.699219 550.027344 419.328125 551.3125 417.113281 551.3125 C 413.296875 551.3125 413.296875 548.539062 413.296875 545.328125 C 413.296875 544.144531 413.253906 543.019531 413.214844 541.921875 C 413.183594 540.859375 413.144531 539.855469 413.144531 538.839844 L 413.144531 538.300781 C 412.933594 537.933594 412.59375 537.78125 412.011719 537.78125 C 412.011719 537.78125 411.359375 537.769531 411.148438 537.769531 Z M 417.113281 555.566406 C 416.40625 555.566406 415.605469 555.566406 414.875 555.402344 C 412.324219 555.027344 409.421875 553.242188 408.742188 550.121094 C 408.503906 548.59375 408.425781 547.816406 408.425781 546.878906 C 408.476562 544.367188 408.429688 542.589844 408.398438 541.011719 C 408.371094 540.042969 408.351562 539.132812 408.351562 538.136719 C 408.351562 537.941406 408.429688 537.753906 408.578125 537.609375 C 409.097656 537.097656 410.402344 537.082031 411.691406 537.105469 L 412.011719 537.109375 C 412.566406 537.109375 413.351562 537.207031 413.78125 538.066406 L 413.820312 538.136719 L 413.820312 538.839844 C 413.820312 539.84375 413.855469 540.84375 413.894531 541.902344 C 413.933594 542.996094 413.972656 544.132812 413.972656 545.328125 C 413.972656 548.917969 414.101562 550.640625 417.113281 550.640625 C 418.9375 550.640625 420.023438 549.632812 420.023438 547.960938 L 420.253906 540.375 C 420.179688 531.660156 419.535156 530.128906 415.957031 530.128906 L 410.277344 530.128906 C 409.429688 530.347656 409.070312 529.914062 408.921875 529.632812 C 408.628906 529.242188 408.667969 528.636719 408.738281 528.292969 C 408.5 521.011719 408.425781 513.820312 408.503906 505.664062 L 408.503906 501.570312 C 408.503906 501.308594 408.503906 500.875 408.855469 500.613281 C 408.953125 500.519531 409.109375 500.382812 409.378906 500.382812 C 411.3125 500.382812 422.402344 500.304688 422.53125 500.304688 C 423.492188 500.28125 424.574219 500.269531 425.226562 500.90625 C 425.554688 501.234375 425.722656 501.691406 425.722656 502.261719 C 425.722656 502.535156 425.707031 502.839844 425.6875 503.15625 C 425.664062 503.476562 425.648438 503.8125 425.648438 504.121094 L 425.648438 504.664062 C 425.648438 504.765625 425.613281 504.917969 425.472656 505.058594 C 425.027344 505.496094 423.515625 505.636719 420.25 505.550781 C 420.085938 505.546875 414.210938 505.472656 414.125 505.472656 C 414.132812 510.632812 414.195312 522.71875 414.203125 524.949219 C 415.289062 524.890625 416.507812 524.890625 417.425781 524.890625 C 421.519531 524.890625 424.359375 526.734375 425.230469 529.949219 C 425.328125 530.101562 425.339844 530.273438 425.339844 530.378906 C 425.609375 531.835938 425.722656 533.421875 425.722656 535.671875 C 425.722656 535.671875 425.683594 542.308594 425.695312 543.527344 C 425.734375 547.234375 425.773438 550.734375 423.71875 553.277344 L 423.671875 553.316406 L 423.136719 553.78125 C 421.320312 555.101562 418.84375 555.566406 417.113281 555.566406 " fill-opacity="1" fill-rule="nonzero"/><path fill="#e4fbff" d="M 565.019531 527.8125 C 565.019531 530.445312 565.09375 539.257812 565.09375 539.257812 C 565.789062 539.257812 566.5625 539.335938 567.257812 539.335938 C 567.878906 539.335938 568.421875 539.257812 575.765625 539.335938 C 576.769531 539.335938 576.847656 539.335938 577.160156 540.183594 C 577.234375 540.492188 577.3125 540.957031 577.3125 541.652344 C 577.3125 542.351562 577.3125 542.816406 577.160156 543.121094 C 576.921875 543.664062 576.460938 543.742188 575.84375 543.742188 C 573.675781 543.742188 571.511719 543.820312 569.269531 543.742188 C 569.269531 543.742188 563.9375 543.820312 561.847656 543.820312 C 561 543.820312 560.304688 543.664062 560.304688 542.425781 C 560.457031 537.324219 560.304688 533.691406 560.226562 531.0625 C 560.144531 528.898438 560.226562 526.34375 560.765625 524.101562 C 561.078125 522.710938 562.15625 521.546875 563.394531 520.316406 C 564.167969 519.617188 564.632812 519.464844 568.804688 515.601562 C 569.96875 514.671875 571.238281 513.375 571.972656 511.578125 C 572.382812 510.578125 572.285156 509.488281 572.363281 508.410156 C 572.363281 504.777344 572.363281 501.058594 572.132812 497.355469 C 572.132812 495.878906 572.054688 495.808594 572.054688 495.421875 C 572.054688 494.105469 570.503906 493.332031 569.039062 493.332031 C 565.324219 493.484375 565.324219 496.039062 565.324219 498.664062 C 565.324219 500.835938 565.253906 503.539062 565.253906 506.015625 C 565.253906 506.246094 565.019531 506.476562 564.785156 506.476562 C 563.703125 506.628906 562.777344 506.628906 562.308594 506.628906 C 561 506.628906 560.457031 506.320312 560.457031 505.855469 C 560.457031 505.625 560.535156 505.394531 560.535156 499.671875 C 560.535156 497.042969 560.457031 494.257812 561.460938 492.175781 C 563.011719 489.933594 566.101562 488.925781 568.652344 488.925781 C 569.347656 488.925781 570.121094 489 571.589844 489.230469 C 574.527344 489.230469 576.847656 492.789062 576.921875 495.496094 C 576.921875 496.421875 576.921875 497.273438 577.160156 503.148438 C 577.234375 505.3125 577.234375 508.328125 577.3125 509.488281 C 577.3125 514.515625 573.082031 517.46875 569.425781 521.320312 C 567.46875 523.382812 565.019531 524.570312 565.019531 527.8125 " fill-opacity="1" fill-rule="nonzero"/><path fill="#e4fbff" d="M 569.027344 492.992188 C 570.6875 492.960938 572.390625 493.902344 572.390625 495.421875 C 572.390625 495.542969 572.398438 495.625 572.410156 495.738281 C 572.433594 495.988281 572.472656 496.367188 572.472656 497.355469 C 572.703125 501.054688 572.703125 504.792969 572.703125 508.410156 C 572.679688 508.707031 572.667969 508.980469 572.664062 509.25 C 572.640625 510.070312 572.613281 510.910156 572.289062 511.707031 C 571.65625 513.25 570.589844 514.605469 569.015625 515.859375 C 566.015625 518.644531 564.917969 519.515625 564.265625 520.035156 C 564.015625 520.230469 563.828125 520.378906 563.621094 520.566406 C 562.417969 521.773438 561.382812 522.886719 561.09375 524.175781 C 560.644531 526.042969 560.46875 528.355469 560.5625 531.050781 L 560.59375 531.992188 C 560.671875 534.488281 560.777344 537.90625 560.636719 542.4375 C 560.636719 543.335938 560.992188 543.480469 561.847656 543.480469 C 563.90625 543.480469 575.121094 543.402344 575.84375 543.402344 C 576.476562 543.402344 576.707031 543.308594 576.84375 542.992188 C 576.972656 542.738281 576.972656 542.277344 576.972656 541.652344 C 576.972656 541.117188 576.929688 540.652344 576.828125 540.269531 C 576.613281 539.667969 576.613281 539.667969 575.765625 539.667969 C 569.863281 539.605469 568.382812 539.648438 567.675781 539.664062 C 567.507812 539.667969 567.382812 539.667969 567.257812 539.667969 C 566.90625 539.667969 566.535156 539.652344 566.160156 539.636719 C 565.800781 539.613281 565.4375 539.597656 565.09375 539.597656 L 564.761719 539.597656 C 564.761719 539.597656 564.683594 530.417969 564.683594 527.8125 C 564.683594 525.1875 566.179688 523.839844 567.773438 522.417969 C 568.242188 522 568.726562 521.566406 569.179688 521.089844 C 569.878906 520.351562 570.601562 519.644531 571.300781 518.960938 C 574.21875 516.113281 576.972656 513.417969 576.972656 509.488281 C 576.933594 508.878906 576.910156 507.679688 576.894531 506.410156 C 576.871094 505.324219 576.589844 496.417969 576.589844 495.496094 C 576.511719 492.835938 574.1875 489.570312 571.589844 489.570312 C 570.128906 489.34375 569.347656 489.265625 568.652344 489.265625 C 566.449219 489.265625 563.320312 490.074219 561.738281 492.359375 C 560.863281 494.195312 560.867188 496.710938 560.867188 499.144531 L 560.867188 499.671875 C 560.867188 504.445312 560.816406 505.414062 560.800781 505.730469 C 560.796875 505.789062 560.796875 505.820312 560.796875 505.855469 C 560.796875 506.058594 561.191406 506.289062 562.308594 506.289062 C 562.753906 506.289062 563.683594 506.289062 564.738281 506.144531 C 564.835938 506.136719 564.914062 506.058594 564.914062 506.015625 C 564.914062 504.730469 564.992188 499.710938 564.992188 498.664062 C 564.992188 496.089844 564.988281 493.078125 569.027344 492.992188 Z M 561.847656 544.15625 C 561.285156 544.15625 559.964844 544.15625 559.964844 542.425781 C 560.101562 537.90625 559.992188 534.5 559.914062 532.007812 L 559.886719 531.070312 C 559.789062 528.316406 559.972656 525.941406 560.441406 524.023438 C 560.761719 522.566406 561.863281 521.367188 563.15625 520.074219 C 563.386719 519.863281 563.585938 519.710938 563.847656 519.503906 C 564.488281 518.988281 565.574219 518.136719 568.578125 515.351562 C 570.078125 514.152344 571.078125 512.882812 571.664062 511.453125 C 571.945312 510.765625 571.964844 510.019531 571.992188 509.234375 C 571.996094 508.953125 572.007812 508.667969 572.023438 508.386719 C 572.023438 504.804688 572.023438 501.078125 571.792969 497.371094 C 571.792969 496.398438 571.761719 496.039062 571.738281 495.800781 C 571.726562 495.664062 571.714844 495.5625 571.714844 495.421875 C 571.714844 494.339844 570.324219 493.671875 569.039062 493.671875 C 565.664062 493.808594 565.664062 496.0625 565.664062 498.664062 C 565.664062 499.714844 565.585938 504.738281 565.585938 506.015625 C 565.585938 506.433594 565.207031 506.816406 564.785156 506.816406 C 563.726562 506.96875 562.773438 506.96875 562.308594 506.96875 C 560.859375 506.96875 560.117188 506.597656 560.117188 505.855469 C 560.117188 505.8125 560.125 505.769531 560.125 505.699219 C 560.140625 505.382812 560.195312 504.425781 560.195312 499.671875 L 560.195312 499.144531 C 560.191406 496.636719 560.1875 494.042969 561.15625 492.027344 C 562.914062 489.472656 566.285156 488.585938 568.652344 488.585938 C 569.386719 488.585938 570.199219 488.671875 571.648438 488.902344 C 574.628906 488.902344 577.175781 492.503906 577.261719 495.484375 C 577.261719 496.40625 577.261719 497.269531 577.492188 503.140625 C 577.527344 504.132812 577.605469 508.851562 577.644531 509.464844 C 577.652344 513.703125 574.792969 516.492188 571.777344 519.445312 C 571.082031 520.125 570.359375 520.824219 569.667969 521.554688 C 569.195312 522.050781 568.699219 522.492188 568.21875 522.925781 C 566.679688 524.300781 565.355469 525.484375 565.355469 527.8125 C 565.355469 530.121094 565.417969 537.300781 565.425781 538.921875 C 565.683594 538.929688 565.9375 538.945312 566.195312 538.957031 C 566.558594 538.980469 566.917969 538.996094 567.257812 538.996094 C 567.375 538.996094 567.496094 538.992188 567.660156 538.992188 C 568.371094 538.972656 569.855469 538.933594 575.769531 538.996094 C 576.855469 538.996094 577.097656 539.035156 577.476562 540.070312 C 577.59375 540.542969 577.652344 541.054688 577.652344 541.652344 C 577.652344 542.402344 577.652344 542.894531 577.460938 543.273438 C 577.144531 544.011719 576.460938 544.082031 575.84375 544.082031 C 575.125 544.082031 574.410156 544.085938 573.6875 544.097656 C 572.25 544.113281 570.765625 544.132812 569.257812 544.082031 C 569.222656 544.082031 563.914062 544.15625 561.847656 544.15625 " fill-opacity="1" fill-rule="nonzero"/><path fill="#e4fbff" d="M 595.480469 520.390625 C 595.480469 513.511719 595.632812 497.429688 595.632812 496.269531 C 595.632812 493.875 593.699219 493.484375 592 493.484375 C 589.292969 493.484375 588.519531 494.417969 588.441406 497.195312 L 588.441406 537.171875 C 588.441406 539.179688 589.910156 539.953125 591.769531 539.953125 C 593.929688 539.953125 595.246094 538.332031 595.246094 535.855469 Z M 583.570312 536.550781 C 583.492188 526.65625 583.570312 519.390625 583.570312 514.050781 C 583.492188 500.835938 583.882812 499.054688 583.882812 497.273438 C 583.882812 491.554688 586.125 489.941406 590.066406 489.078125 C 590.761719 488.925781 591.535156 488.925781 592.230469 488.925781 C 595.320312 488.925781 600.347656 490.164062 600.347656 495.03125 C 600.425781 504.777344 600.425781 535.160156 600.425781 535.160156 C 600.425781 540.957031 598.183594 544.207031 592.078125 544.207031 C 588.136719 544.207031 583.570312 542.425781 583.570312 536.550781 " fill-opacity="1" fill-rule="nonzero"/><path fill="#e4fbff" d="M 592 493.824219 C 589.546875 493.824219 588.851562 494.550781 588.78125 497.207031 L 588.78125 537.171875 C 588.78125 539.1875 590.402344 539.613281 591.769531 539.613281 C 593.707031 539.613281 594.910156 538.171875 594.910156 535.855469 C 594.910156 535.855469 595.296875 496.609375 595.296875 496.269531 C 595.296875 494.582031 594.28125 493.824219 592 493.824219 Z M 591.769531 540.289062 C 589.441406 540.289062 588.105469 539.15625 588.105469 537.171875 L 588.105469 497.195312 C 588.191406 494.167969 589.167969 493.144531 592 493.144531 C 594.632812 493.144531 595.96875 494.203125 595.96875 496.269531 C 595.96875 496.609375 595.582031 535.863281 595.582031 535.863281 C 595.582031 538.550781 594.082031 540.289062 591.769531 540.289062 Z M 592.230469 489.265625 C 591.5625 489.265625 590.808594 489.265625 590.140625 489.40625 C 586.300781 490.25 584.222656 491.75 584.222656 497.273438 C 584.222656 497.746094 584.191406 498.21875 584.152344 498.875 C 584.050781 500.753906 583.855469 504.261719 583.910156 514.050781 L 583.910156 536.550781 C 583.910156 543.339844 590.15625 543.867188 592.078125 543.867188 C 597.621094 543.867188 600.089844 541.183594 600.089844 535.160156 C 600.089844 534.855469 600.089844 504.664062 600.007812 495.03125 C 600.007812 489.421875 593.027344 489.265625 592.230469 489.265625 Z M 592.078125 544.542969 C 583.871094 544.542969 583.234375 538.425781 583.234375 536.550781 C 583.183594 529.597656 583.234375 515.640625 583.234375 514.050781 C 583.175781 504.246094 583.375 500.726562 583.480469 498.835938 C 583.515625 498.191406 583.542969 497.726562 583.542969 497.273438 C 583.542969 491.328125 585.910156 489.644531 589.992188 488.75 C 590.734375 488.585938 591.5625 488.585938 592.230469 488.585938 C 596.128906 488.585938 600.6875 490.277344 600.6875 495.03125 C 600.761719 504.664062 600.761719 534.855469 600.761719 535.160156 C 600.761719 541.5625 598.003906 544.542969 592.078125 544.542969 " fill-opacity="1" fill-rule="nonzero"/><path fill="#e4fbff" d="M 222.054688 516.917969 C 222.757812 517.300781 223.605469 517.609375 224.148438 518.226562 C 225.304688 519.390625 225.6875 521.9375 225.769531 523.636719 L 225.769531 528.746094 C 225.535156 533.925781 226.460938 538.792969 223.835938 542.042969 L 223.292969 542.503906 C 221.59375 543.742188 219.199219 544.207031 217.496094 544.207031 C 216.804688 544.207031 216.027344 544.207031 215.328125 544.050781 C 212.703125 543.664062 210.074219 541.882812 209.453125 539.023438 C 209.222656 537.554688 209.144531 536.78125 209.144531 535.855469 C 209.222656 531.835938 209.070312 529.75 209.070312 527.117188 C 209.070312 526.269531 211.617188 526.421875 212.390625 526.421875 C 213.011719 526.421875 213.554688 526.574219 213.859375 527.195312 L 213.859375 527.8125 C 213.859375 529.902344 214.019531 531.992188 214.019531 534.308594 C 214.019531 537.554688 214.019531 539.953125 217.496094 539.953125 C 219.351562 539.953125 220.742188 538.945312 220.742188 536.933594 L 220.976562 529.359375 L 220.742188 523.484375 C 220.667969 523.175781 220.507812 520.546875 219.351562 519.773438 C 218.65625 519 217.578125 518.769531 216.492188 518.691406 C 215.640625 518.769531 215.023438 518.691406 214.867188 518.691406 C 213.9375 518.691406 213.9375 518.148438 213.9375 517.222656 C 213.9375 517.070312 213.9375 517.070312 214.019531 515.210938 C 213.9375 514.210938 216.183594 514.363281 216.804688 514.363281 C 217.265625 514.363281 217.652344 514.285156 218.65625 513.972656 C 220.507812 513.277344 220.585938 511.730469 220.898438 509.644531 C 221.050781 505.855469 220.78125 504.394531 220.898438 497.273438 C 220.910156 496.582031 220.898438 495.265625 220.433594 494.417969 C 219.582031 493.644531 218.734375 493.484375 218.035156 493.484375 L 217.339844 493.484375 C 215.640625 493.484375 214.019531 493.875 214.019531 496.269531 C 214.089844 499.359375 214.019531 503.613281 214.019531 506.015625 C 213.859375 506.78125 212.78125 506.707031 212.007812 506.707031 C 211 506.707031 209.613281 506.628906 209.300781 505.703125 L 209.300781 505.007812 C 209.300781 503.613281 209.378906 502.375 209.378906 501.058594 C 209.300781 495.960938 209.378906 495.34375 209.453125 494.722656 C 209.453125 490.394531 214.5625 488.925781 217.417969 488.925781 C 218.113281 488.925781 218.886719 489.011719 219.582031 489.078125 C 222.984375 489.421875 224.992188 492.246094 225.613281 495.726562 L 225.769531 497.96875 C 225.6875 505.007812 225.847656 507.324219 225.613281 512.429688 C 225.613281 513.972656 223.683594 516.679688 222.054688 516.917969 " fill-opacity="1" fill-rule="nonzero"/><path fill="#e4fbff" d="M 211.53125 526.75 C 210.78125 526.75 209.714844 526.789062 209.4375 527.066406 C 209.410156 528.105469 209.429688 529.011719 209.449219 529.976562 C 209.488281 531.558594 209.53125 533.34375 209.480469 535.863281 C 209.480469 536.753906 209.554688 537.511719 209.789062 538.972656 C 210.390625 541.765625 213.035156 543.375 215.378906 543.71875 C 216.0625 543.867188 216.824219 543.867188 217.496094 543.867188 C 219.113281 543.867188 221.433594 543.4375 223.097656 542.234375 L 223.59375 541.804688 C 225.472656 539.460938 225.441406 536.234375 225.402344 532.511719 C 225.390625 531.285156 225.371094 530.015625 225.429688 528.726562 L 225.429688 523.636719 C 225.390625 522.75 225.164062 519.71875 223.910156 518.464844 C 223.53125 518.035156 222.984375 517.761719 222.453125 517.496094 C 222.261719 517.402344 222.074219 517.304688 221.894531 517.210938 L 221.015625 516.71875 L 222.011719 516.578125 C 223.453125 516.375 225.277344 513.828125 225.277344 512.429688 C 225.421875 509.269531 225.417969 507.21875 225.410156 504.375 C 225.40625 502.628906 225.402344 500.652344 225.429688 497.964844 L 225.277344 495.75 C 224.625 492.09375 222.480469 489.710938 219.546875 489.414062 L 219.382812 489.402344 C 218.722656 489.332031 218.039062 489.265625 217.417969 489.265625 C 214.46875 489.265625 209.792969 490.746094 209.792969 494.722656 C 209.714844 495.359375 209.640625 495.976562 209.714844 501.058594 C 209.714844 501.714844 209.695312 502.347656 209.679688 502.984375 C 209.65625 503.640625 209.640625 504.300781 209.640625 505.007812 L 209.640625 505.640625 C 209.898438 506.285156 211.042969 506.371094 212.007812 506.371094 L 212.203125 506.371094 C 212.972656 506.375 213.578125 506.351562 213.679688 505.972656 C 213.679688 505.257812 213.683594 504.382812 213.695312 503.421875 C 213.714844 501.203125 213.734375 498.433594 213.679688 496.277344 C 213.679688 493.472656 215.769531 493.144531 217.339844 493.144531 L 218.035156 493.144531 C 219.050781 493.144531 219.910156 493.480469 220.660156 494.164062 L 220.730469 494.253906 C 221.214844 495.132812 221.25 496.40625 221.238281 497.28125 C 221.175781 500.929688 221.21875 503.097656 221.253906 504.84375 C 221.28125 506.5 221.3125 507.804688 221.230469 509.65625 L 221.164062 510.15625 C 220.894531 512.070312 220.679688 513.578125 218.773438 514.289062 C 217.730469 514.613281 217.3125 514.703125 216.804688 514.703125 L 216.566406 514.695312 C 216.070312 514.691406 214.746094 514.664062 214.40625 515.019531 C 214.363281 515.070312 214.347656 515.113281 214.351562 515.1875 C 214.277344 517.074219 214.277344 517.074219 214.277344 517.222656 C 214.277344 518.261719 214.328125 518.351562 214.867188 518.351562 C 214.90625 518.351562 214.96875 518.355469 215.050781 518.363281 C 215.316406 518.378906 215.820312 518.414062 216.457031 518.355469 C 217.429688 518.417969 218.734375 518.609375 219.578125 519.519531 C 220.648438 520.269531 220.914062 522.28125 221.035156 523.140625 C 221.050781 523.265625 221.0625 523.359375 221.074219 523.402344 L 221.078125 523.46875 L 221.3125 529.347656 L 221.078125 536.945312 C 221.078125 539.003906 219.707031 540.289062 217.496094 540.289062 C 213.679688 540.289062 213.679688 537.515625 213.679688 534.308594 C 213.679688 533.121094 213.640625 531.992188 213.601562 530.902344 C 213.5625 529.839844 213.527344 528.835938 213.527344 527.8125 L 213.527344 527.28125 C 213.3125 526.910156 212.980469 526.761719 212.390625 526.761719 C 212.390625 526.761719 211.742188 526.75 211.53125 526.75 Z M 217.496094 544.542969 C 216.792969 544.542969 215.988281 544.542969 215.253906 544.378906 C 212.703125 544.007812 209.804688 542.222656 209.125 539.097656 C 208.882812 537.574219 208.808594 536.792969 208.808594 535.855469 C 208.855469 533.347656 208.816406 531.5625 208.777344 529.992188 C 208.753906 529.019531 208.730469 528.105469 208.730469 527.117188 C 208.730469 526.921875 208.808594 526.734375 208.960938 526.585938 C 209.476562 526.078125 210.78125 526.0625 212.074219 526.085938 L 212.390625 526.085938 C 212.945312 526.085938 213.734375 526.1875 214.164062 527.042969 L 214.199219 527.117188 L 214.199219 527.8125 C 214.199219 528.824219 214.234375 529.824219 214.273438 530.878906 C 214.3125 531.976562 214.351562 533.109375 214.351562 534.308594 C 214.351562 537.894531 214.488281 539.613281 217.496094 539.613281 C 219.316406 539.613281 220.40625 538.613281 220.40625 536.933594 L 220.636719 529.347656 L 220.40625 523.523438 C 220.394531 523.464844 220.378906 523.359375 220.363281 523.230469 C 220.265625 522.519531 220.015625 520.621094 219.164062 520.058594 L 219.101562 520 C 218.578125 519.417969 217.769531 519.117188 216.464844 519.027344 C 215.832031 519.089844 215.277344 519.050781 215.007812 519.035156 C 214.945312 519.035156 214.894531 519.027344 214.867188 519.027344 C 213.601562 519.027344 213.601562 518.109375 213.601562 517.222656 C 213.601562 517.0625 213.601562 517.0625 213.679688 515.199219 C 213.664062 514.980469 213.742188 514.742188 213.921875 514.554688 C 214.417969 514.023438 215.554688 514 216.578125 514.023438 L 216.804688 514.023438 C 217.234375 514.023438 217.609375 513.945312 218.554688 513.652344 C 220.066406 513.085938 220.238281 511.882812 220.496094 510.058594 L 220.566406 509.59375 C 220.636719 507.800781 220.609375 506.5 220.578125 504.855469 C 220.542969 503.109375 220.503906 500.929688 220.558594 497.269531 C 220.566406 496.816406 220.59375 495.460938 220.164062 494.625 C 219.351562 493.910156 218.566406 493.824219 218.035156 493.824219 L 217.339844 493.824219 C 215.222656 493.824219 214.351562 494.53125 214.351562 496.269531 C 214.40625 498.425781 214.386719 501.203125 214.367188 503.425781 C 214.363281 504.402344 214.351562 505.289062 214.351562 506.015625 L 214.347656 506.074219 C 214.152344 507.058594 212.972656 507.058594 212.199219 507.046875 L 212.007812 507.046875 C 211.222656 507.046875 209.390625 507.046875 208.980469 505.8125 L 208.960938 505.703125 L 208.960938 505.007812 C 208.960938 504.296875 208.984375 503.628906 209.003906 502.96875 C 209.023438 502.335938 209.042969 501.710938 209.042969 501.058594 C 208.960938 495.941406 209.042969 495.332031 209.121094 494.683594 C 209.113281 490.253906 214.210938 488.585938 217.417969 488.585938 C 218.074219 488.585938 218.808594 488.660156 219.453125 488.730469 L 219.617188 488.746094 C 222.871094 489.074219 225.230469 491.660156 225.949219 495.671875 L 226.105469 497.949219 C 226.078125 500.652344 226.078125 502.636719 226.085938 504.375 C 226.089844 507.222656 226.09375 509.277344 225.953125 512.441406 C 225.953125 513.867188 224.457031 516.164062 222.910156 516.972656 C 223.445312 517.242188 223.988281 517.539062 224.402344 518.007812 C 225.773438 519.375 226.050781 522.390625 226.105469 523.625 C 226.105469 523.625 226.0625 531.285156 226.074219 532.507812 C 226.113281 536.210938 226.152344 539.714844 224.09375 542.25 L 224.054688 542.296875 L 223.515625 542.757812 C 221.699219 544.082031 219.222656 544.542969 217.496094 544.542969 " fill-opacity="1" fill-rule="nonzero"/><path fill="#e4fbff" d="M 243.933594 520.390625 C 243.933594 513.511719 244.09375 497.429688 244.09375 496.269531 C 244.09375 493.875 242.160156 493.484375 240.453125 493.484375 C 237.75 493.484375 236.980469 494.417969 236.902344 497.195312 L 236.902344 537.171875 C 236.902344 539.179688 238.371094 539.953125 240.222656 539.953125 C 242.390625 539.953125 243.703125 538.332031 243.703125 535.855469 Z M 232.03125 536.550781 C 231.953125 526.65625 232.03125 519.390625 232.03125 514.050781 C 231.953125 500.835938 232.335938 499.054688 232.335938 497.273438 C 232.335938 491.554688 234.585938 489.941406 238.523438 489.078125 C 239.21875 488.925781 239.992188 488.925781 240.6875 488.925781 C 243.78125 488.925781 248.808594 490.164062 248.808594 495.03125 C 248.882812 504.777344 248.882812 535.160156 248.882812 535.160156 C 248.882812 540.957031 246.640625 544.207031 240.535156 544.207031 C 236.589844 544.207031 232.03125 542.425781 232.03125 536.550781 " fill-opacity="1" fill-rule="nonzero"/><path fill="#e4fbff" d="M 240.453125 493.824219 C 238.003906 493.824219 237.308594 494.550781 237.234375 497.207031 L 237.234375 537.171875 C 237.234375 539.1875 238.863281 539.613281 240.222656 539.613281 C 242.160156 539.613281 243.371094 538.171875 243.371094 535.855469 C 243.371094 535.855469 243.753906 496.609375 243.753906 496.269531 C 243.753906 494.582031 242.738281 493.824219 240.453125 493.824219 Z M 240.222656 540.289062 C 237.894531 540.289062 236.5625 539.15625 236.5625 537.171875 L 236.5625 497.195312 C 236.648438 494.167969 237.628906 493.144531 240.453125 493.144531 C 243.09375 493.144531 244.425781 494.203125 244.425781 496.269531 C 244.425781 496.609375 244.042969 535.863281 244.042969 535.863281 C 244.042969 538.550781 242.542969 540.289062 240.222656 540.289062 Z M 240.6875 489.265625 C 240.019531 489.265625 239.269531 489.265625 238.597656 489.40625 C 234.753906 490.25 232.675781 491.75 232.675781 497.273438 C 232.675781 497.746094 232.648438 498.21875 232.613281 498.875 C 232.507812 500.753906 232.308594 504.261719 232.367188 514.050781 L 232.367188 536.550781 C 232.367188 543.339844 238.617188 543.867188 240.535156 543.867188 C 246.074219 543.867188 248.550781 541.183594 248.550781 535.160156 C 248.550781 534.855469 248.542969 504.664062 248.46875 495.03125 C 248.46875 489.421875 241.488281 489.265625 240.6875 489.265625 Z M 240.535156 544.542969 C 232.332031 544.542969 231.691406 538.425781 231.691406 536.550781 C 231.636719 529.597656 231.691406 515.640625 231.691406 514.050781 C 231.636719 504.246094 231.835938 500.726562 231.9375 498.835938 C 231.976562 498.191406 232.003906 497.726562 232.003906 497.273438 C 232.003906 491.328125 234.363281 489.644531 238.449219 488.75 C 239.195312 488.585938 240.019531 488.585938 240.6875 488.585938 C 244.589844 488.585938 249.140625 490.277344 249.140625 495.03125 C 249.222656 504.664062 249.222656 534.855469 249.222656 535.160156 C 249.222656 541.5625 246.460938 544.542969 240.535156 544.542969 " fill-opacity="1" fill-rule="nonzero"/><path fill="#e4fbff" d="M 722.582031 495.46875 C 722.582031 496.082031 722.695312 496.472656 722.695312 497.089844 C 722.695312 498.09375 721.6875 498.253906 721.074219 498.253906 C 719.683594 498.253906 718.679688 498.40625 718.136719 498.019531 C 717.671875 497.710938 717.746094 497.089844 717.746094 496.242188 C 717.746094 489.746094 717.671875 452.480469 717.746094 451.085938 C 717.746094 450.007812 717.671875 449.390625 717.671875 448.304688 L 713.730469 448.304688 C 713.1875 448.304688 713.261719 446.296875 713.261719 445.753906 C 713.261719 445.058594 712.726562 443.972656 714.808594 443.972656 C 715.121094 443.972656 716.355469 443.742188 719.988281 443.898438 L 721.382812 443.898438 C 722 443.898438 722.582031 444.363281 722.582031 445.058594 L 722.582031 495.46875 " fill-opacity="1" fill-rule="nonzero"/><path fill="#e4fbff" d="M 713.785156 447.96875 L 718.007812 447.96875 L 718.007812 448.304688 C 718.007812 448.84375 718.027344 449.261719 718.046875 449.683594 C 718.070312 450.113281 718.085938 450.542969 718.085938 451.085938 C 718.027344 452.140625 718.085938 496.5625 718.085938 496.5625 C 718.074219 497.222656 718.078125 497.582031 718.324219 497.738281 C 718.648438 497.976562 719.304688 497.953125 720.136719 497.929688 C 720.425781 497.917969 720.734375 497.914062 721.074219 497.914062 C 721.925781 497.914062 722.363281 497.636719 722.363281 497.089844 C 722.363281 496.789062 722.339844 496.546875 722.320312 496.304688 C 722.300781 496.042969 722.242188 495.789062 722.242188 495.46875 L 722.242188 445.058594 C 722.242188 444.523438 721.78125 444.234375 721.382812 444.234375 L 719.988281 444.234375 C 717.074219 444.109375 715.71875 444.238281 715.136719 444.289062 C 714.984375 444.300781 714.875 444.3125 714.808594 444.3125 C 714.050781 444.3125 713.757812 444.464844 713.644531 444.589844 C 713.511719 444.742188 713.527344 444.992188 713.570312 445.347656 C 713.589844 445.488281 713.601562 445.628906 713.601562 445.753906 L 713.601562 445.945312 C 713.582031 447.402344 713.703125 447.835938 713.785156 447.96875 Z M 719.445312 498.621094 C 718.808594 498.621094 718.316406 498.5625 717.9375 498.292969 C 717.390625 497.925781 717.402344 497.292969 717.40625 496.558594 C 717.40625 496.558594 717.34375 449.035156 717.335938 448.640625 L 713.730469 448.640625 C 713.578125 448.640625 713.4375 448.582031 713.324219 448.46875 C 712.972656 448.113281 712.910156 447.238281 712.929688 445.9375 L 712.929688 445.753906 C 712.929688 445.652344 712.917969 445.539062 712.898438 445.425781 C 712.855469 445.023438 712.796875 444.53125 713.144531 444.144531 C 713.449219 443.796875 713.980469 443.640625 714.808594 443.640625 C 714.867188 443.640625 714.949219 443.628906 715.074219 443.617188 C 715.667969 443.5625 717.058594 443.4375 720.007812 443.5625 L 721.382812 443.5625 C 722.21875 443.5625 722.882812 444.214844 722.882812 445.058594 C 722.882812 445.390625 723.035156 496.773438 723.035156 497.089844 C 723.035156 498.042969 722.320312 498.585938 721.074219 498.585938 C 720.746094 498.585938 720.441406 498.597656 720.152344 498.601562 C 719.898438 498.613281 719.667969 498.621094 719.445312 498.621094 " fill-opacity="1" fill-rule="nonzero"/><path fill="#e4fbff" d="M 745.582031 483.097656 C 745.351562 488.277344 746.277344 493.144531 743.652344 496.394531 L 743.109375 496.855469 C 741.410156 498.09375 739.007812 498.558594 737.308594 498.558594 C 736.613281 498.558594 735.839844 498.558594 735.144531 498.40625 C 732.519531 498.019531 729.886719 496.242188 729.269531 493.378906 C 729.039062 491.910156 728.960938 491.140625 728.960938 490.207031 C 729.039062 486.191406 728.878906 484.101562 728.878906 481.476562 C 728.878906 480.621094 731.433594 480.773438 732.207031 480.773438 C 732.824219 480.773438 733.367188 480.933594 733.675781 481.550781 L 733.675781 482.171875 C 733.675781 484.253906 733.828125 486.34375 733.828125 488.667969 C 733.828125 491.910156 733.828125 494.308594 737.308594 494.308594 C 739.167969 494.308594 740.554688 493.304688 740.554688 491.292969 L 740.789062 483.71875 C 740.707031 474.902344 740.015625 473.121094 736.148438 473.121094 L 730.429688 473.121094 C 729.886719 473.28125 729.574219 473.121094 729.421875 472.816406 C 729.191406 472.503906 729.191406 472.042969 729.269531 471.652344 C 729.039062 464.460938 728.960938 457.199219 729.039062 449 L 729.039062 444.90625 C 729.039062 444.675781 729.039062 444.363281 729.269531 444.210938 C 729.34375 444.132812 729.421875 444.050781 729.574219 444.050781 C 733.597656 444.050781 737.617188 443.972656 742.335938 443.972656 C 743.652344 443.972656 745.582031 443.742188 745.582031 445.601562 C 745.582031 446.144531 745.503906 446.835938 745.503906 447.453125 L 745.503906 447.996094 C 745.503906 448.769531 740.636719 448.539062 740.09375 448.539062 C 737.617188 448.539062 734.21875 448.457031 733.980469 448.457031 C 733.980469 453.949219 734.058594 468.636719 734.058594 468.636719 C 735.222656 468.5625 736.613281 468.5625 737.617188 468.5625 C 740.941406 468.5625 744.1875 469.878906 745.121094 473.433594 C 745.195312 473.511719 745.195312 473.664062 745.195312 473.742188 C 745.425781 474.980469 745.582031 476.449219 745.582031 479 L 745.582031 483.097656 " fill-opacity="1" fill-rule="nonzero"/><path fill="#e4fbff" d="M 731.34375 481.101562 C 730.589844 481.101562 729.523438 481.148438 729.246094 481.417969 C 729.21875 482.457031 729.242188 483.367188 729.265625 484.335938 C 729.304688 485.910156 729.34375 487.699219 729.296875 490.214844 C 729.296875 491.105469 729.371094 491.863281 729.601562 493.328125 C 730.207031 496.117188 732.84375 497.726562 735.191406 498.070312 C 735.878906 498.222656 736.636719 498.222656 737.308594 498.222656 C 738.929688 498.222656 741.25 497.796875 742.90625 496.585938 L 743.410156 496.15625 C 745.289062 493.8125 745.25 490.59375 745.214844 486.871094 C 745.199219 485.644531 745.1875 484.378906 745.246094 483.089844 L 745.246094 479 C 745.246094 476.210938 745.050781 474.808594 744.867188 473.804688 L 744.855469 473.742188 C 744.855469 473.71875 744.855469 473.652344 744.847656 473.628906 L 744.785156 473.5625 L 744.792969 473.515625 C 743.703125 469.347656 739.410156 468.902344 737.617188 468.902344 C 736.613281 468.902344 735.234375 468.902344 734.082031 468.976562 L 733.6875 468.996094 L 733.6875 448.125 C 733.6875 448.125 740.285156 448.203125 740.464844 448.203125 C 744.121094 448.304688 744.972656 448.0625 745.164062 447.933594 L 745.164062 447.453125 C 745.164062 447.132812 745.1875 446.78125 745.210938 446.449219 C 745.226562 446.144531 745.246094 445.855469 745.246094 445.601562 C 745.246094 445.203125 745.148438 444.917969 744.945312 444.71875 C 744.5 444.277344 743.5625 444.296875 742.742188 444.308594 C 742.601562 444.3125 731.507812 444.390625 729.574219 444.390625 C 729.558594 444.398438 729.523438 444.425781 729.507812 444.449219 L 729.457031 444.488281 C 729.371094 444.542969 729.371094 444.753906 729.371094 444.90625 L 729.371094 449 C 729.296875 457.164062 729.371094 464.355469 729.601562 471.640625 L 729.609375 471.679688 L 729.597656 471.71875 C 729.523438 472.105469 729.558594 472.433594 729.695312 472.613281 C 729.765625 472.753906 729.863281 472.933594 730.335938 472.800781 L 730.429688 472.789062 L 736.148438 472.789062 C 740.421875 472.789062 741.054688 475.117188 741.125 483.710938 L 740.894531 491.300781 C 740.894531 493.359375 739.523438 494.644531 737.308594 494.644531 C 733.488281 494.644531 733.488281 491.875 733.488281 488.667969 C 733.488281 487.480469 733.449219 486.351562 733.410156 485.253906 C 733.375 484.191406 733.335938 483.191406 733.335938 482.171875 L 733.335938 481.632812 C 733.128906 481.265625 732.792969 481.113281 732.207031 481.113281 C 732.207031 481.113281 731.550781 481.101562 731.34375 481.101562 Z M 737.308594 498.898438 C 736.601562 498.898438 735.804688 498.898438 735.070312 498.734375 C 732.519531 498.359375 729.613281 496.574219 728.9375 493.449219 C 728.699219 491.929688 728.621094 491.144531 728.621094 490.207031 C 728.671875 487.699219 728.625 485.921875 728.585938 484.34375 C 728.5625 483.378906 728.546875 482.464844 728.546875 481.476562 C 728.546875 481.273438 728.621094 481.085938 728.773438 480.9375 C 729.292969 480.429688 730.597656 480.414062 731.890625 480.4375 L 732.207031 480.441406 C 732.761719 480.441406 733.546875 480.539062 733.976562 481.402344 L 734.015625 481.46875 L 734.015625 482.171875 C 734.015625 483.183594 734.046875 484.175781 734.089844 485.230469 C 734.128906 486.328125 734.167969 487.46875 734.167969 488.667969 C 734.167969 492.246094 734.304688 493.972656 737.308594 493.972656 C 739.132812 493.972656 740.21875 492.972656 740.21875 491.292969 L 740.449219 483.707031 C 740.375 474.996094 739.730469 473.460938 736.148438 473.460938 L 730.472656 473.460938 C 729.625 473.679688 729.265625 473.246094 729.121094 472.964844 C 728.824219 472.574219 728.863281 471.972656 728.929688 471.628906 C 728.695312 464.34375 728.621094 457.152344 728.699219 448.996094 L 728.699219 444.90625 C 728.699219 444.640625 728.699219 444.207031 729.050781 443.949219 C 729.144531 443.855469 729.304688 443.714844 729.574219 443.714844 C 731.507812 443.714844 742.59375 443.632812 742.726562 443.632812 C 743.683594 443.613281 744.769531 443.601562 745.417969 444.238281 C 745.753906 444.566406 745.917969 445.023438 745.917969 445.601562 C 745.917969 445.867188 745.898438 446.171875 745.882812 446.488281 C 745.859375 446.808594 745.84375 447.144531 745.84375 447.453125 L 745.84375 447.996094 C 745.84375 448.097656 745.808594 448.25 745.667969 448.390625 C 745.222656 448.824219 743.707031 448.96875 740.449219 448.882812 C 740.28125 448.875 734.40625 448.804688 734.320312 448.804688 C 734.324219 453.964844 734.386719 466.050781 734.398438 468.28125 C 735.484375 468.222656 736.703125 468.222656 737.617188 468.222656 C 741.714844 468.222656 744.554688 470.066406 745.425781 473.28125 C 745.519531 473.433594 745.53125 473.605469 745.53125 473.707031 C 745.804688 475.171875 745.917969 476.753906 745.917969 479 C 745.917969 479 745.878906 485.644531 745.886719 486.859375 C 745.929688 490.566406 745.96875 494.066406 743.910156 496.609375 L 743.867188 496.648438 L 743.324219 497.117188 C 741.515625 498.433594 739.035156 498.898438 737.308594 498.898438 " fill-opacity="1" fill-rule="nonzero"/><path fill="#e4fbff" d="M 73.90625 471.269531 C 74.601562 471.652344 75.449219 471.964844 75.992188 472.585938 C 77.15625 473.742188 77.539062 476.289062 77.617188 477.996094 L 77.617188 483.097656 C 77.386719 488.277344 78.3125 493.144531 75.679688 496.394531 L 75.144531 496.855469 C 73.441406 498.09375 71.042969 498.558594 69.34375 498.558594 C 68.648438 498.558594 67.875 498.558594 67.179688 498.40625 C 64.550781 498.019531 61.917969 496.242188 61.304688 493.378906 C 61.074219 491.910156 60.992188 491.140625 60.992188 490.207031 C 61.074219 486.191406 60.914062 484.101562 60.914062 481.476562 C 60.914062 480.621094 63.46875 480.773438 64.242188 480.773438 C 64.855469 480.773438 65.398438 480.933594 65.710938 481.550781 L 65.710938 482.171875 C 65.710938 484.253906 65.863281 486.34375 65.863281 488.667969 C 65.863281 491.910156 65.863281 494.308594 69.34375 494.308594 C 71.199219 494.308594 72.589844 493.304688 72.589844 491.292969 L 72.820312 483.71875 L 72.589844 477.839844 C 72.511719 477.53125 72.359375 474.902344 71.199219 474.125 C 70.507812 473.359375 69.421875 473.121094 68.335938 473.042969 C 67.488281 473.121094 66.867188 473.042969 66.714844 473.042969 C 65.789062 473.042969 65.789062 472.503906 65.789062 471.578125 C 65.789062 471.421875 65.789062 471.421875 65.863281 469.566406 C 65.789062 468.5625 68.027344 468.714844 68.648438 468.714844 C 69.109375 468.714844 69.496094 468.636719 70.507812 468.332031 C 72.359375 467.636719 72.4375 466.089844 72.742188 464 C 72.902344 460.207031 72.628906 458.746094 72.742188 451.628906 C 72.753906 450.933594 72.742188 449.621094 72.28125 448.769531 C 71.433594 447.996094 70.578125 447.84375 69.882812 447.84375 L 69.191406 447.84375 C 67.488281 447.84375 65.863281 448.226562 65.863281 450.621094 C 65.941406 453.71875 65.863281 457.972656 65.863281 460.367188 C 65.710938 461.140625 64.625 461.0625 63.851562 461.0625 C 62.847656 461.0625 61.457031 460.980469 61.144531 460.054688 L 61.144531 459.359375 C 61.144531 457.972656 61.226562 456.734375 61.226562 455.417969 C 61.144531 450.316406 61.226562 449.695312 61.304688 449.082031 C 61.304688 444.746094 66.40625 443.277344 69.261719 443.277344 C 69.964844 443.277344 70.730469 443.363281 71.433594 443.429688 C 74.828125 443.777344 76.84375 446.605469 77.460938 450.085938 L 77.617188 452.328125 C 77.539062 459.359375 77.691406 461.683594 77.460938 466.785156 C 77.460938 468.332031 75.527344 471.035156 73.90625 471.269531 " fill-opacity="1" fill-rule="nonzero"/><path fill="#e4fbff" d="M 63.378906 481.101562 C 62.625 481.101562 61.5625 481.148438 61.28125 481.417969 C 61.253906 482.457031 61.277344 483.367188 61.296875 484.335938 C 61.339844 485.910156 61.378906 487.699219 61.332031 490.214844 C 61.332031 491.105469 61.40625 491.863281 61.636719 493.328125 C 62.242188 496.117188 64.878906 497.726562 67.230469 498.070312 C 67.914062 498.222656 68.671875 498.222656 69.34375 498.222656 C 70.964844 498.222656 73.285156 497.796875 74.945312 496.585938 L 75.4375 496.15625 C 77.324219 493.8125 77.289062 490.59375 77.246094 486.871094 C 77.234375 485.640625 77.222656 484.375 77.277344 483.078125 L 77.277344 477.996094 C 77.238281 477.109375 77.007812 474.074219 75.753906 472.820312 C 75.375 472.390625 74.828125 472.117188 74.296875 471.851562 C 74.109375 471.753906 73.917969 471.65625 73.742188 471.5625 L 72.867188 471.078125 L 73.855469 470.933594 C 75.300781 470.726562 77.125 468.183594 77.125 466.785156 C 77.265625 463.621094 77.261719 461.570312 77.257812 458.734375 C 77.25 456.988281 77.25 455.003906 77.277344 452.324219 L 77.125 450.109375 C 76.472656 446.449219 74.332031 444.0625 71.398438 443.769531 L 71.230469 443.753906 C 70.574219 443.683594 69.890625 443.617188 69.261719 443.617188 C 66.316406 443.617188 61.636719 445.097656 61.636719 449.082031 C 61.5625 449.71875 61.484375 450.335938 61.5625 455.414062 C 61.5625 456.066406 61.542969 456.699219 61.523438 457.34375 C 61.507812 457.992188 61.484375 458.660156 61.484375 459.359375 L 61.484375 460 C 61.75 460.644531 62.886719 460.722656 63.851562 460.722656 L 64.050781 460.722656 C 64.824219 460.722656 65.421875 460.707031 65.523438 460.328125 C 65.53125 459.613281 65.535156 458.734375 65.539062 457.773438 C 65.558594 455.554688 65.582031 452.785156 65.53125 450.632812 C 65.523438 447.824219 67.621094 447.503906 69.191406 447.503906 L 69.882812 447.503906 C 70.894531 447.503906 71.753906 447.835938 72.511719 448.519531 L 72.578125 448.605469 C 73.058594 449.492188 73.097656 450.757812 73.082031 451.632812 C 73.023438 455.289062 73.066406 457.457031 73.097656 459.195312 C 73.132812 460.851562 73.15625 462.164062 73.082031 464.015625 L 73.015625 464.511719 C 72.738281 466.421875 72.523438 467.929688 70.617188 468.648438 C 69.578125 468.96875 69.15625 469.054688 68.648438 469.054688 L 68.410156 469.046875 C 67.914062 469.042969 66.597656 469.015625 66.257812 469.375 C 66.210938 469.421875 66.195312 469.472656 66.203125 469.539062 C 66.121094 471.433594 66.121094 471.433594 66.121094 471.578125 C 66.121094 472.613281 66.171875 472.707031 66.714844 472.707031 C 66.75 472.707031 66.816406 472.714844 66.902344 472.714844 C 67.167969 472.738281 67.664062 472.769531 68.308594 472.707031 C 69.273438 472.777344 70.578125 472.96875 71.421875 473.871094 C 72.5 474.628906 72.765625 476.632812 72.878906 477.492188 C 72.894531 477.625 72.90625 477.714844 72.917969 477.757812 L 72.929688 477.828125 L 73.160156 483.703125 L 72.929688 491.300781 C 72.929688 493.359375 71.554688 494.644531 69.34375 494.644531 C 65.523438 494.644531 65.523438 491.875 65.523438 488.667969 C 65.523438 487.480469 65.484375 486.351562 65.445312 485.253906 C 65.410156 484.191406 65.371094 483.191406 65.371094 482.171875 L 65.371094 481.632812 C 65.164062 481.265625 64.828125 481.113281 64.242188 481.113281 C 64.242188 481.113281 63.585938 481.101562 63.378906 481.101562 Z M 69.34375 498.898438 C 68.636719 498.898438 67.839844 498.898438 67.105469 498.734375 C 64.550781 498.359375 61.648438 496.574219 60.972656 493.449219 C 60.734375 491.929688 60.65625 491.144531 60.65625 490.207031 C 60.707031 487.699219 60.660156 485.921875 60.625 484.34375 C 60.597656 483.378906 60.582031 482.464844 60.582031 481.476562 C 60.582031 481.273438 60.660156 481.085938 60.808594 480.9375 C 61.328125 480.429688 62.632812 480.414062 63.925781 480.4375 L 64.242188 480.441406 C 64.796875 480.441406 65.582031 480.539062 66.007812 481.402344 L 66.050781 481.46875 L 66.050781 482.171875 C 66.050781 483.183594 66.082031 484.175781 66.121094 485.230469 C 66.160156 486.328125 66.203125 487.46875 66.203125 488.667969 C 66.203125 492.246094 66.335938 493.972656 69.34375 493.972656 C 71.167969 493.972656 72.25 492.972656 72.25 491.292969 L 72.484375 483.707031 L 72.25 477.882812 C 72.238281 477.816406 72.230469 477.714844 72.210938 477.582031 C 72.117188 476.871094 71.863281 474.980469 71.007812 474.410156 L 70.945312 474.351562 C 70.425781 473.777344 69.613281 473.476562 68.3125 473.382812 C 67.675781 473.441406 67.121094 473.410156 66.855469 473.390625 C 66.789062 473.386719 66.742188 473.382812 66.714844 473.382812 C 65.449219 473.382812 65.449219 472.464844 65.449219 471.578125 C 65.449219 471.414062 65.449219 471.414062 65.53125 469.550781 C 65.507812 469.332031 65.589844 469.097656 65.765625 468.914062 C 66.269531 468.375 67.40625 468.359375 68.425781 468.375 L 68.648438 468.375 C 69.078125 468.375 69.457031 468.296875 70.402344 468.007812 C 71.914062 467.4375 72.082031 466.234375 72.339844 464.417969 L 72.410156 463.953125 C 72.484375 462.15625 72.453125 460.859375 72.425781 459.214844 C 72.390625 457.460938 72.347656 455.289062 72.410156 451.621094 C 72.414062 451.171875 72.4375 449.8125 72.007812 448.976562 C 71.195312 448.261719 70.410156 448.175781 69.882812 448.175781 L 69.191406 448.175781 C 67.066406 448.175781 66.203125 448.886719 66.203125 450.621094 C 66.253906 452.785156 66.234375 455.554688 66.21875 457.777344 C 66.207031 458.757812 66.203125 459.644531 66.203125 460.367188 L 66.195312 460.433594 C 66 461.417969 64.824219 461.40625 64.042969 461.398438 L 63.851562 461.398438 C 63.070312 461.398438 61.242188 461.398438 60.828125 460.164062 L 60.8125 460.054688 L 60.8125 459.359375 C 60.8125 458.65625 60.828125 457.984375 60.851562 457.320312 C 60.867188 456.6875 60.886719 456.0625 60.886719 455.417969 C 60.8125 450.292969 60.886719 449.683594 60.964844 449.035156 C 60.964844 444.605469 66.054688 442.945312 69.261719 442.945312 C 69.925781 442.945312 70.652344 443.019531 71.296875 443.082031 L 71.464844 443.097656 C 74.714844 443.425781 77.082031 446.019531 77.792969 450.023438 L 77.949219 452.300781 C 77.921875 455.011719 77.929688 456.988281 77.933594 458.734375 C 77.941406 461.582031 77.941406 463.632812 77.796875 466.800781 C 77.796875 468.21875 76.300781 470.515625 74.757812 471.324219 C 75.296875 471.597656 75.839844 471.890625 76.246094 472.359375 C 77.617188 473.730469 77.894531 476.746094 77.949219 477.980469 C 77.949219 477.980469 77.910156 485.644531 77.921875 486.859375 C 77.960938 490.566406 78 494.066406 75.945312 496.609375 L 75.902344 496.648438 L 75.363281 497.117188 C 73.550781 498.433594 71.070312 498.898438 69.34375 498.898438 " fill-opacity="1" fill-rule="nonzero"/><path fill="#e4fbff" d="M 100.5 483.097656 C 100.269531 488.277344 101.195312 493.144531 98.5625 496.394531 L 98.027344 496.855469 C 96.328125 498.09375 93.925781 498.558594 92.226562 498.558594 C 91.53125 498.558594 90.757812 498.558594 90.0625 498.40625 C 87.433594 498.019531 84.804688 496.242188 84.1875 493.378906 C 83.957031 491.910156 83.875 491.140625 83.875 490.207031 C 83.957031 486.191406 83.796875 484.101562 83.796875 481.476562 C 83.796875 480.621094 86.351562 480.773438 87.125 480.773438 C 87.742188 480.773438 88.28125 480.933594 88.59375 481.550781 L 88.59375 482.171875 C 88.59375 484.253906 88.746094 486.34375 88.746094 488.667969 C 88.746094 491.910156 88.746094 494.308594 92.226562 494.308594 C 94.082031 494.308594 95.472656 493.304688 95.472656 491.292969 L 95.703125 483.71875 C 95.625 474.902344 94.929688 473.121094 91.066406 473.121094 L 85.34375 473.121094 C 84.804688 473.28125 84.492188 473.121094 84.339844 472.816406 C 84.109375 472.503906 84.109375 472.042969 84.1875 471.652344 C 83.957031 464.460938 83.875 457.199219 83.957031 449 L 83.957031 444.90625 C 83.957031 444.675781 83.957031 444.363281 84.1875 444.210938 C 84.261719 444.132812 84.339844 444.050781 84.492188 444.050781 C 88.515625 444.050781 92.535156 443.972656 97.253906 443.972656 C 98.5625 443.972656 100.5 443.742188 100.5 445.601562 C 100.5 446.144531 100.421875 446.835938 100.421875 447.453125 L 100.421875 447.996094 C 100.421875 448.769531 95.550781 448.539062 95.011719 448.539062 C 92.535156 448.539062 89.136719 448.457031 88.902344 448.457031 C 88.902344 453.949219 88.976562 468.636719 88.976562 468.636719 C 90.140625 468.5625 91.53125 468.5625 92.535156 468.5625 C 95.859375 468.5625 99.105469 469.878906 100.039062 473.433594 C 100.109375 473.511719 100.109375 473.664062 100.109375 473.742188 C 100.34375 474.980469 100.5 476.449219 100.5 479 L 100.5 483.097656 " fill-opacity="1" fill-rule="nonzero"/><path fill="#e4fbff" d="M 86.261719 481.101562 C 85.515625 481.101562 84.445312 481.148438 84.164062 481.417969 C 84.136719 482.457031 84.160156 483.367188 84.179688 484.335938 C 84.222656 485.910156 84.261719 487.699219 84.214844 490.214844 C 84.214844 491.105469 84.289062 491.863281 84.519531 493.328125 C 85.125 496.117188 87.761719 497.726562 90.113281 498.070312 C 90.796875 498.222656 91.554688 498.222656 92.226562 498.222656 C 93.847656 498.222656 96.167969 497.796875 97.828125 496.585938 L 98.320312 496.15625 C 100.207031 493.8125 100.171875 490.59375 100.128906 486.871094 C 100.117188 485.644531 100.105469 484.378906 100.160156 483.089844 L 100.160156 479 C 100.160156 476.210938 99.96875 474.808594 99.785156 473.804688 L 99.773438 473.742188 C 99.773438 473.71875 99.773438 473.652344 99.765625 473.628906 L 99.703125 473.5625 L 99.710938 473.515625 C 98.621094 469.347656 94.332031 468.902344 92.535156 468.902344 C 91.53125 468.902344 90.152344 468.902344 89 468.976562 L 88.605469 468.996094 L 88.605469 448.125 C 88.605469 448.125 95.203125 448.203125 95.382812 448.203125 C 99.039062 448.304688 99.890625 448.0625 100.082031 447.933594 L 100.082031 447.453125 C 100.082031 447.132812 100.105469 446.78125 100.128906 446.449219 C 100.144531 446.144531 100.160156 445.855469 100.160156 445.601562 C 100.160156 445.203125 100.066406 444.917969 99.863281 444.71875 C 99.417969 444.277344 98.480469 444.296875 97.652344 444.308594 C 97.519531 444.3125 86.425781 444.390625 84.492188 444.390625 C 84.476562 444.398438 84.445312 444.425781 84.425781 444.449219 L 84.375 444.488281 C 84.289062 444.542969 84.289062 444.753906 84.289062 444.90625 L 84.289062 449 C 84.214844 457.164062 84.289062 464.355469 84.527344 471.640625 L 84.527344 471.679688 L 84.515625 471.71875 C 84.441406 472.105469 84.476562 472.433594 84.609375 472.613281 C 84.683594 472.753906 84.78125 472.933594 85.253906 472.800781 L 85.34375 472.789062 L 91.066406 472.789062 C 95.335938 472.789062 95.964844 475.117188 96.042969 483.710938 L 95.8125 491.300781 C 95.8125 493.359375 94.441406 494.644531 92.226562 494.644531 C 88.414062 494.644531 88.414062 491.875 88.414062 488.667969 C 88.414062 487.480469 88.367188 486.351562 88.328125 485.253906 C 88.292969 484.191406 88.253906 483.191406 88.253906 482.171875 L 88.253906 481.632812 C 88.046875 481.265625 87.710938 481.113281 87.125 481.113281 C 87.125 481.113281 86.46875 481.101562 86.261719 481.101562 Z M 92.226562 498.898438 C 91.519531 498.898438 90.722656 498.898438 89.988281 498.734375 C 87.433594 498.359375 84.53125 496.574219 83.855469 493.449219 C 83.617188 491.929688 83.539062 491.144531 83.539062 490.207031 C 83.589844 487.699219 83.542969 485.921875 83.503906 484.34375 C 83.480469 483.378906 83.464844 482.464844 83.464844 481.476562 C 83.464844 481.273438 83.542969 481.085938 83.691406 480.9375 C 84.210938 480.429688 85.515625 480.414062 86.800781 480.4375 L 87.125 480.441406 C 87.679688 480.441406 88.464844 480.539062 88.894531 481.402344 L 88.933594 481.46875 L 88.933594 482.171875 C 88.933594 483.183594 88.964844 484.175781 89.003906 485.230469 C 89.046875 486.328125 89.085938 487.46875 89.085938 488.667969 C 89.085938 492.246094 89.21875 493.972656 92.226562 493.972656 C 94.050781 493.972656 95.132812 492.972656 95.132812 491.292969 L 95.367188 483.707031 C 95.292969 474.996094 94.648438 473.460938 91.066406 473.460938 L 85.390625 473.460938 C 84.542969 473.679688 84.179688 473.246094 84.039062 472.964844 C 83.734375 472.574219 83.78125 471.972656 83.847656 471.628906 C 83.609375 464.34375 83.539062 457.152344 83.617188 448.996094 L 83.617188 444.90625 C 83.617188 444.640625 83.617188 444.207031 83.96875 443.949219 C 84.0625 443.855469 84.222656 443.714844 84.492188 443.714844 C 86.425781 443.714844 97.511719 443.632812 97.640625 443.632812 C 98.601562 443.613281 99.6875 443.601562 100.335938 444.238281 C 100.671875 444.566406 100.835938 445.023438 100.835938 445.601562 C 100.835938 445.867188 100.816406 446.171875 100.800781 446.488281 C 100.777344 446.808594 100.761719 447.144531 100.761719 447.453125 L 100.761719 447.996094 C 100.761719 448.097656 100.726562 448.25 100.585938 448.390625 C 100.140625 448.824219 98.625 448.96875 95.367188 448.882812 C 95.195312 448.875 89.320312 448.804688 89.238281 448.804688 C 89.242188 453.964844 89.304688 466.050781 89.316406 468.28125 C 90.402344 468.222656 91.621094 468.222656 92.535156 468.222656 C 96.632812 468.222656 99.472656 470.066406 100.34375 473.28125 C 100.4375 473.433594 100.449219 473.605469 100.449219 473.707031 C 100.722656 475.171875 100.835938 476.753906 100.835938 479 C 100.835938 479 100.792969 485.644531 100.804688 486.859375 C 100.84375 490.566406 100.886719 494.066406 98.828125 496.609375 L 98.785156 496.648438 L 98.246094 497.117188 C 96.433594 498.433594 93.953125 498.898438 92.226562 498.898438 " fill-opacity="1" fill-rule="nonzero"/><path fill="#ffffff" d="M 644.515625 249.898438 C 601.84375 211 553.730469 194.828125 483.898438 205.167969 C 500.21875 195.246094 527.015625 183.582031 574.933594 178.59375 C 558.371094 174.816406 530.890625 169.273438 499.316406 173.03125 C 482.464844 175.035156 457.050781 180.261719 437.664062 187.367188 C 424.148438 192.328125 413.53125 197.519531 405.460938 202.144531 C 397.382812 197.519531 386.773438 192.328125 373.25 187.367188 C 353.863281 180.261719 328.449219 175.035156 311.601562 173.03125 C 280.023438 169.273438 252.546875 174.816406 235.984375 178.59375 C 284.464844 183.644531 311.324219 195.523438 327.582031 205.511719 C 256.515625 194.480469 207.816406 210.578125 164.675781 249.898438 C 212.949219 234.203125 277.410156 227.609375 314.480469 241.125 C 298.964844 254.300781 286.46875 275.488281 282.78125 310.960938 C 318.378906 264.683594 355.75 249.949219 404.597656 248.527344 C 453.441406 249.949219 490.820312 264.683594 526.410156 310.960938 C 522.730469 275.488281 510.226562 254.300781 494.710938 241.125 C 531.789062 227.609375 596.242188 234.203125 644.515625 249.898438 " fill-opacity="1" fill-rule="nonzero"/><path fill="#e4fbff" d="M 404.882812 484.097656 C 401.527344 484.097656 398.8125 481.378906 398.8125 478.023438 L 398.8125 459.304688 C 398.8125 455.953125 401.527344 453.238281 404.882812 453.238281 C 408.238281 453.238281 410.957031 455.953125 410.957031 459.304688 L 410.957031 478.023438 C 410.957031 481.378906 408.238281 484.097656 404.882812 484.097656 " fill-opacity="1" fill-rule="nonzero"/><path fill="#e4fbff" d="M 440.148438 477.640625 C 438.65625 477.640625 437.449219 476.429688 437.449219 474.941406 L 437.449219 456.226562 C 437.449219 454.734375 438.65625 453.527344 440.148438 453.527344 C 441.640625 453.527344 442.847656 454.734375 442.847656 456.226562 L 442.847656 474.941406 C 442.847656 476.429688 441.640625 477.640625 440.148438 477.640625 " fill-opacity="1" fill-rule="nonzero"/><path fill="#e4fbff" d="M 475.222656 476.109375 C 473.730469 476.109375 472.527344 474.902344 472.527344 473.414062 L 472.527344 454.695312 C 472.527344 453.203125 473.730469 451.996094 475.222656 451.996094 C 476.714844 451.996094 477.921875 453.203125 477.921875 454.695312 L 477.921875 473.414062 C 477.921875 474.902344 476.714844 476.109375 475.222656 476.109375 " fill-opacity="1" fill-rule="nonzero"/><path fill="#e4fbff" d="M 510.300781 473.433594 C 508.808594 473.433594 507.601562 472.222656 507.601562 470.730469 L 507.601562 452.015625 C 507.601562 450.527344 508.808594 449.316406 510.300781 449.316406 C 511.792969 449.316406 513 450.527344 513 452.015625 L 513 470.730469 C 513 472.222656 511.792969 473.433594 510.300781 473.433594 " fill-opacity="1" fill-rule="nonzero"/><path fill="#e4fbff" d="M 545.375 469.992188 C 543.882812 469.992188 542.675781 468.78125 542.675781 467.292969 L 542.675781 448.570312 C 542.675781 447.085938 543.882812 445.878906 545.375 445.878906 C 546.867188 445.878906 548.074219 447.085938 548.074219 448.570312 L 548.074219 467.292969 C 548.074219 468.78125 546.867188 469.992188 545.375 469.992188 " fill-opacity="1" fill-rule="nonzero"/><path fill="#e4fbff" d="M 580.449219 471.742188 C 577.097656 471.742188 574.375 469.027344 574.375 465.671875 L 574.375 446.949219 C 574.375 443.601562 577.097656 440.878906 580.449219 440.878906 C 583.804688 440.878906 586.519531 443.601562 586.519531 446.949219 L 586.519531 465.671875 C 586.519531 469.027344 583.804688 471.742188 580.449219 471.742188 " fill-opacity="1" fill-rule="nonzero"/><path fill="#e4fbff" d="M 610.160156 459.230469 C 608.675781 459.230469 607.464844 458.023438 607.464844 456.53125 L 607.464844 437.8125 C 607.464844 436.320312 608.675781 435.109375 610.160156 435.109375 C 611.652344 435.109375 612.859375 436.320312 612.859375 437.8125 L 612.859375 456.53125 C 612.859375 458.023438 611.652344 459.230469 610.160156 459.230469 " fill-opacity="1" fill-rule="nonzero"/><path fill="#e4fbff" d="M 639.878906 453.109375 C 638.386719 453.109375 637.179688 451.898438 637.179688 450.414062 L 637.179688 431.691406 C 637.179688 430.203125 638.386719 428.992188 639.878906 428.992188 C 641.371094 428.992188 642.578125 430.203125 642.578125 431.691406 L 642.578125 450.414062 C 642.578125 451.898438 641.371094 453.109375 639.878906 453.109375 " fill-opacity="1" fill-rule="nonzero"/><path fill="#e4fbff" d="M 669.589844 444.503906 C 668.097656 444.503906 666.890625 443.296875 666.890625 441.804688 L 666.890625 423.085938 C 666.890625 421.59375 668.097656 420.390625 669.589844 420.390625 C 671.082031 420.390625 672.289062 421.59375 672.289062 423.085938 L 672.289062 441.804688 C 672.289062 443.296875 671.082031 444.503906 669.589844 444.503906 " fill-opacity="1" fill-rule="nonzero"/><path fill="#e4fbff" d="M 699.304688 434.363281 C 697.8125 434.363281 696.609375 433.15625 696.609375 431.664062 L 696.609375 412.949219 C 696.609375 411.460938 697.8125 410.25 699.304688 410.25 C 700.792969 410.25 702.003906 411.460938 702.003906 412.949219 L 702.003906 431.664062 C 702.003906 433.15625 700.792969 434.363281 699.304688 434.363281 " fill-opacity="1" fill-rule="nonzero"/><path fill="#e4fbff" d="M 751.007812 406.472656 C 749.515625 406.472656 748.304688 405.261719 748.304688 403.769531 L 748.304688 385.058594 C 748.304688 383.566406 749.515625 382.355469 751.007812 382.355469 C 752.496094 382.355469 753.707031 383.566406 753.707031 385.058594 L 753.707031 403.769531 C 753.707031 405.261719 752.496094 406.472656 751.007812 406.472656 " fill-opacity="1" fill-rule="nonzero"/><path fill="#e4fbff" d="M 729.019531 424.105469 C 725.664062 424.105469 722.949219 421.390625 722.949219 418.035156 L 722.949219 399.320312 C 722.949219 395.964844 725.664062 393.246094 729.019531 393.246094 C 732.371094 393.246094 735.09375 395.964844 735.09375 399.320312 L 735.09375 418.035156 C 735.09375 421.390625 732.371094 424.105469 729.019531 424.105469 " fill-opacity="1" fill-rule="nonzero"/><path fill="#e4fbff" d="M 229.398438 471.742188 C 226.042969 471.742188 223.328125 469.027344 223.328125 465.671875 L 223.328125 446.949219 C 223.328125 443.601562 226.042969 440.878906 229.398438 440.878906 C 232.753906 440.878906 235.472656 443.601562 235.472656 446.949219 L 235.472656 465.671875 C 235.472656 469.027344 232.753906 471.742188 229.398438 471.742188 " fill-opacity="1" fill-rule="nonzero"/><path fill="#e4fbff" d="M 199.6875 459.230469 C 198.195312 459.230469 196.988281 458.023438 196.988281 456.53125 L 196.988281 437.8125 C 196.988281 436.320312 198.195312 435.109375 199.6875 435.109375 C 201.179688 435.109375 202.382812 436.320312 202.382812 437.8125 L 202.382812 456.53125 C 202.382812 458.023438 201.179688 459.230469 199.6875 459.230469 " fill-opacity="1" fill-rule="nonzero"/><path fill="#e4fbff" d="M 169.96875 453.109375 C 168.484375 453.109375 167.273438 451.898438 167.273438 450.414062 L 167.273438 431.691406 C 167.273438 430.203125 168.484375 428.992188 169.96875 428.992188 C 171.460938 428.992188 172.667969 430.203125 172.667969 431.691406 L 172.667969 450.414062 C 172.667969 451.898438 171.460938 453.109375 169.96875 453.109375 " fill-opacity="1" fill-rule="nonzero"/><path fill="#e4fbff" d="M 140.257812 444.503906 C 138.765625 444.503906 137.558594 443.296875 137.558594 441.804688 L 137.558594 423.085938 C 137.558594 421.59375 138.765625 420.390625 140.257812 420.390625 C 141.75 420.390625 142.957031 421.59375 142.957031 423.085938 L 142.957031 441.804688 C 142.957031 443.296875 141.75 444.503906 140.257812 444.503906 " fill-opacity="1" fill-rule="nonzero"/><path fill="#e4fbff" d="M 110.542969 434.363281 C 109.054688 434.363281 107.84375 433.15625 107.84375 431.664062 L 107.84375 412.949219 C 107.84375 411.460938 109.054688 410.25 110.542969 410.25 C 112.035156 410.25 113.246094 411.460938 113.246094 412.949219 L 113.246094 431.664062 C 113.246094 433.15625 112.035156 434.363281 110.542969 434.363281 " fill-opacity="1" fill-rule="nonzero"/><path fill="#e4fbff" d="M 57.117188 405.324219 C 55.628906 405.324219 54.417969 404.117188 54.417969 402.625 L 54.417969 383.90625 C 54.417969 382.417969 55.628906 381.210938 57.117188 381.210938 C 58.609375 381.210938 59.820312 382.417969 59.820312 383.90625 L 59.820312 402.625 C 59.820312 404.117188 58.609375 405.324219 57.117188 405.324219 " fill-opacity="1" fill-rule="nonzero"/><path fill="#e4fbff" d="M 80.832031 424.105469 C 77.476562 424.105469 74.757812 421.390625 74.757812 418.035156 L 74.757812 399.320312 C 74.757812 395.964844 77.476562 393.246094 80.832031 393.246094 C 84.179688 393.246094 86.902344 395.964844 86.902344 399.320312 L 86.902344 418.035156 C 86.902344 421.390625 84.179688 424.105469 80.832031 424.105469 " fill-opacity="1" fill-rule="nonzero"/><path fill="#e4fbff" d="M 369.382812 477.640625 C 367.890625 477.640625 366.683594 476.429688 366.683594 474.941406 L 366.683594 456.226562 C 366.683594 454.734375 367.890625 453.527344 369.382812 453.527344 C 370.871094 453.527344 372.082031 454.734375 372.082031 456.226562 L 372.082031 474.941406 C 372.082031 476.429688 370.871094 477.640625 369.382812 477.640625 " fill-opacity="1" fill-rule="nonzero"/><path fill="#e4fbff" d="M 334.304688 476.109375 C 332.8125 476.109375 331.609375 474.902344 331.609375 473.414062 L 331.609375 454.695312 C 331.609375 453.203125 332.8125 451.996094 334.304688 451.996094 C 335.792969 451.996094 337.003906 453.203125 337.003906 454.695312 L 337.003906 473.414062 C 337.003906 474.902344 335.792969 476.109375 334.304688 476.109375 " fill-opacity="1" fill-rule="nonzero"/><path fill="#e4fbff" d="M 299.230469 473.433594 C 297.738281 473.433594 296.53125 472.222656 296.53125 470.730469 L 296.53125 452.015625 C 296.53125 450.527344 297.738281 449.316406 299.230469 449.316406 C 300.722656 449.316406 301.929688 450.527344 301.929688 452.015625 L 301.929688 470.730469 C 301.929688 472.222656 300.722656 473.433594 299.230469 473.433594 " fill-opacity="1" fill-rule="nonzero"/><path fill="#e4fbff" d="M 264.15625 469.992188 C 262.664062 469.992188 261.457031 468.78125 261.457031 467.292969 L 261.457031 448.570312 C 261.457031 447.085938 262.664062 445.878906 264.15625 445.878906 C 265.648438 445.878906 266.855469 447.085938 266.855469 448.570312 L 266.855469 467.292969 C 266.855469 468.78125 265.648438 469.992188 264.15625 469.992188 " fill-opacity="1" fill-rule="nonzero"/><path fill="#ffffff" d="M 420.558594 232.742188 L 388.46875 232.742188 L 388.46875 183.273438 C 388.46875 174.410156 395.652344 167.230469 404.511719 167.230469 C 413.375 167.230469 420.558594 174.410156 420.558594 183.273438 L 420.558594 232.742188 " fill-opacity="1" fill-rule="nonzero"/><path fill="#e4fbff" d="M 405.535156 418.007812 L 374.78125 360.511719 L 436.285156 360.511719 C 436.285156 360.511719 404.195312 418.007812 405.535156 418.007812 " fill-opacity="1" fill-rule="nonzero"/><g fill="#e4fbff" fill-opacity="1"><g transform="translate(135.201764, 155.262075)"><g><path d="M 20.28125 -2.625 C 14.8125 -1.40625 11.375 -3.503906 9.96875 -8.921875 L -11.78125 -93.03125 C -12.375 -95.238281 -12.515625 -97.175781 -12.203125 -98.84375 C -11.898438 -100.507812 -11.242188 -102.140625 -10.234375 -103.734375 C -8.285156 -106.796875 -5.3125 -108.910156 -1.3125 -110.078125 C 25.34375 -117.472656 46.113281 -119.28125 61 -115.5 C 75.882812 -111.71875 85.203125 -101.394531 88.953125 -84.53125 C 90.679688 -76.757812 90.414062 -69.75 88.15625 -63.5 C 85.90625 -57.257812 82.269531 -51.757812 77.25 -47 C 72.238281 -42.238281 66.347656 -38.226562 59.578125 -34.96875 C 52.816406 -31.71875 45.847656 -29.195312 38.671875 -27.40625 L 41.203125 -16.015625 C 42.441406 -10.460938 40.28125 -7.066406 34.71875 -5.828125 Z M 31.25 -60.765625 C 38.15625 -62.492188 43.222656 -64.296875 46.453125 -66.171875 C 49.679688 -68.054688 51.003906 -70.300781 50.421875 -72.90625 C 49.953125 -75.03125 48.59375 -76.570312 46.34375 -77.53125 C 44.09375 -78.488281 41.296875 -79.03125 37.953125 -79.15625 C 34.617188 -79.289062 31.054688 -79.132812 27.265625 -78.6875 Z M 31.25 -60.765625 "/></g></g></g><g fill="#e4fbff" fill-opacity="1"><g transform="translate(242.066869, 131.493056)"><g/></g></g><g fill="#e4fbff" fill-opacity="1"><g transform="translate(237.00169, 132.741554)"><g><path d="M 46.9375 -2.046875 C 37.53125 -0.859375 29.453125 -1.773438 22.703125 -4.796875 C 15.960938 -7.816406 10.632812 -12.332031 6.71875 -18.34375 C 2.8125 -24.351562 0.367188 -31.222656 -0.609375 -38.953125 C -1.578125 -46.671875 -0.890625 -53.929688 1.453125 -60.734375 C 3.804688 -67.535156 7.875 -73.234375 13.65625 -77.828125 C 19.4375 -82.429688 26.984375 -85.320312 36.296875 -86.5 C 46.003906 -87.71875 54.226562 -86.8125 60.96875 -83.78125 C 67.707031 -80.757812 73.007812 -76.238281 76.875 -70.21875 C 80.738281 -64.207031 83.15625 -57.34375 84.125 -49.625 C 84.863281 -43.78125 84.894531 -38.234375 84.21875 -32.984375 C 83.539062 -27.742188 81.867188 -22.96875 79.203125 -18.65625 C 76.546875 -14.351562 72.597656 -10.769531 67.359375 -7.90625 C 62.128906 -5.050781 55.320312 -3.097656 46.9375 -2.046875 Z M 43.171875 -31.84375 C 47.597656 -32.394531 50.648438 -33.804688 52.328125 -36.078125 C 54.003906 -38.347656 54.585938 -41.507812 54.078125 -45.5625 C 53.046875 -53.738281 48.382812 -57.304688 40.09375 -56.265625 C 36.894531 -55.859375 34.175781 -54.488281 31.9375 -52.15625 C 29.707031 -49.832031 28.851562 -46.597656 29.375 -42.453125 C 29.882812 -38.398438 31.460938 -35.507812 34.109375 -33.78125 C 36.765625 -32.0625 39.785156 -31.414062 43.171875 -31.84375 Z M 43.171875 -31.84375 "/></g></g></g><g fill="#e4fbff" fill-opacity="1"><g transform="translate(330.225599, 120.995961)"><g/></g></g><g fill="#e4fbff" fill-opacity="1"><g transform="translate(324.845504, 120.889404)"><g><path d="M 55.921875 -0.90625 C 50.347656 -0.550781 47.378906 -3.316406 47.015625 -9.203125 C 46.703125 -13.273438 46.300781 -17.082031 45.8125 -20.625 C 45.332031 -24.164062 44.660156 -27.015625 43.796875 -29.171875 C 42.929688 -31.335938 41.742188 -32.253906 40.234375 -31.921875 C 39.285156 -31.804688 38.488281 -30.597656 37.84375 -28.296875 C 37.195312 -25.992188 36.707031 -23.128906 36.375 -19.703125 C 36.050781 -16.273438 35.847656 -12.757812 35.765625 -9.15625 C 35.742188 -3.457031 32.976562 -0.53125 27.46875 -0.375 L 18.359375 0.03125 C 12.773438 0.195312 9.800781 -2.5625 9.4375 -8.25 L 6.953125 -59.859375 C 6.703125 -65.359375 9.320312 -68.425781 14.8125 -69.0625 L 23.328125 -69.875 C 29.285156 -70.53125 32.285156 -70.144531 32.328125 -68.71875 L 32.234375 -66.578125 C 33.816406 -67.671875 35.523438 -68.550781 37.359375 -69.21875 C 39.203125 -69.882812 41.164062 -70.203125 43.25 -70.171875 C 51.125 -70.304688 57.347656 -66.738281 61.921875 -59.46875 C 64.003906 -63.039062 66.535156 -65.890625 69.515625 -68.015625 C 72.492188 -70.140625 76.019531 -71.210938 80.09375 -71.234375 C 86.925781 -71.335938 92.320312 -69.453125 96.28125 -65.578125 C 100.238281 -61.710938 103.082031 -55.390625 104.8125 -46.609375 C 106.539062 -37.828125 107.375 -26.179688 107.3125 -11.671875 C 107.289062 -5.867188 104.535156 -2.796875 99.046875 -2.453125 L 91.640625 -2.09375 C 88.992188 -1.914062 86.863281 -2.515625 85.25 -3.890625 C 83.644531 -5.273438 82.753906 -7.390625 82.578125 -10.234375 C 82.367188 -14.304688 82.113281 -18.113281 81.8125 -21.65625 C 81.519531 -25.207031 81.007812 -28.066406 80.28125 -30.234375 C 79.5625 -32.398438 78.445312 -33.316406 76.9375 -32.984375 C 75.988281 -32.867188 75.191406 -31.660156 74.546875 -29.359375 C 73.898438 -27.054688 73.4375 -24.191406 73.15625 -20.765625 C 72.882812 -17.347656 72.703125 -13.832031 72.609375 -10.21875 C 72.585938 -4.625 69.828125 -1.648438 64.328125 -1.296875 Z M 55.921875 -0.90625 "/></g></g></g><g fill="#e4fbff" fill-opacity="1"><g transform="translate(440.390666, 117.53841)"><g/></g></g><g fill="#e4fbff" fill-opacity="1"><g transform="translate(435.029819, 117.956482)"><g><path d="M 46.453125 6.984375 C 36.984375 6.335938 29.234375 3.890625 23.203125 -0.359375 C 17.171875 -4.617188 12.804688 -10.070312 10.109375 -16.71875 C 7.410156 -23.375 6.328125 -30.582031 6.859375 -38.34375 C 7.378906 -46.113281 9.441406 -53.109375 13.046875 -59.328125 C 16.660156 -65.554688 21.742188 -70.375 28.296875 -73.78125 C 34.847656 -77.1875 42.8125 -78.570312 52.1875 -77.9375 C 61.945312 -77.28125 69.84375 -74.820312 75.875 -70.5625 C 81.90625 -66.3125 86.242188 -60.863281 88.890625 -54.21875 C 91.535156 -47.570312 92.597656 -40.363281 92.078125 -32.59375 C 91.679688 -26.726562 90.648438 -21.28125 88.984375 -16.25 C 87.316406 -11.226562 84.765625 -6.859375 81.328125 -3.140625 C 77.890625 0.566406 73.320312 3.320312 67.625 5.125 C 61.9375 6.925781 54.878906 7.546875 46.453125 6.984375 Z M 48.484375 -22.96875 C 52.929688 -22.675781 56.191406 -23.476562 58.265625 -25.375 C 60.347656 -27.28125 61.53125 -30.269531 61.8125 -34.34375 C 62.363281 -42.582031 58.472656 -46.984375 50.140625 -47.546875 C 46.921875 -47.765625 43.988281 -46.941406 41.34375 -45.078125 C 38.707031 -43.210938 37.25 -40.195312 36.96875 -36.03125 C 36.6875 -31.957031 37.679688 -28.816406 39.953125 -26.609375 C 42.234375 -24.410156 45.078125 -23.195312 48.484375 -22.96875 Z M 48.484375 -22.96875 "/></g></g></g><g fill="#e4fbff" fill-opacity="1"><g transform="translate(528.777757, 124.279594)"><g/></g></g><g fill="#e4fbff" fill-opacity="1"><g transform="translate(524.484661, 124.243347)"><g><path d="M 37.78125 7.328125 C 32.664062 6.878906 29.632812 4.285156 28.6875 -0.453125 C 28.082031 -3.609375 27.503906 -7.238281 26.953125 -11.34375 C 26.398438 -15.445312 26.023438 -19.820312 25.828125 -24.46875 L 15.34375 -25.53125 C 9.570312 -26.082031 7.101562 -29.222656 7.9375 -34.953125 L 9.90625 -48.609375 C 10.707031 -54.160156 13.613281 -56.671875 18.625 -56.140625 L 26.125 -55.328125 C 26.457031 -58.253906 26.875 -61.140625 27.375 -63.984375 C 27.882812 -66.835938 28.539062 -69.695312 29.34375 -72.5625 C 31.070312 -78.539062 33.640625 -83.222656 37.046875 -86.609375 C 40.460938 -90.003906 44.375 -92.335938 48.78125 -93.609375 C 53.1875 -94.890625 57.71875 -95.363281 62.375 -95.03125 C 67.03125 -94.695312 71.40625 -93.800781 75.5 -92.34375 C 77.851562 -91.414062 79.472656 -90.046875 80.359375 -88.234375 C 81.253906 -86.429688 81.523438 -84.316406 81.171875 -81.890625 L 79.4375 -69.90625 C 79.0625 -67.269531 78.113281 -65.535156 76.59375 -64.703125 C 75.082031 -63.878906 72.972656 -63.367188 70.265625 -63.171875 C 68.429688 -63.054688 66.550781 -62.488281 64.625 -61.46875 C 62.707031 -60.457031 61.023438 -58.617188 59.578125 -55.953125 C 59.078125 -55.066406 58.597656 -53.703125 58.140625 -51.859375 L 65.46875 -50.9375 C 70.84375 -50.238281 73.421875 -47.179688 73.203125 -41.765625 L 72.578125 -28.484375 C 72.328125 -22.753906 69.832031 -20.085938 65.09375 -20.484375 L 57.859375 -21.125 C 58.441406 -13.84375 59.363281 -6.992188 60.625 -0.578125 C 61.238281 2.484375 60.851562 4.820312 59.46875 6.4375 C 58.09375 8.0625 55.882812 8.753906 52.84375 8.515625 Z M 37.78125 7.328125 "/></g></g></g><g fill="#e4fbff" fill-opacity="1"><g transform="translate(595.916269, 134.58105)"><g/></g></g><g fill="#e4fbff" fill-opacity="1"><g transform="translate(591.664431, 133.2243)"><g><path d="M 27.375 19.625 C 23.300781 19.101562 20.035156 17.195312 17.578125 13.90625 L 9.75 3.375 C 8.113281 1.15625 7.453125 -0.984375 7.765625 -3.046875 C 8.085938 -5.117188 9.40625 -6.960938 11.71875 -8.578125 L 15.03125 -10.90625 C 19.632812 -14.039062 22.835938 -14.429688 24.640625 -12.078125 L 27.328125 -8.53125 C 28.929688 -9.539062 30.78125 -10.828125 32.875 -12.390625 C 34.976562 -13.960938 37.234375 -15.738281 39.640625 -17.71875 C 37.191406 -22.84375 34.703125 -28.613281 32.171875 -35.03125 C 29.640625 -41.445312 27.125 -47.515625 24.625 -53.234375 C 22.195312 -58.835938 23.851562 -62.5 29.59375 -64.21875 L 41.90625 -68.296875 C 47.0625 -70.046875 50.710938 -68.34375 52.859375 -63.1875 C 54.359375 -59.925781 56.109375 -56.171875 58.109375 -51.921875 C 60.109375 -47.671875 62.113281 -43.316406 64.125 -38.859375 C 67.34375 -41.835938 70.46875 -44.753906 73.5 -47.609375 C 76.53125 -50.472656 79.226562 -53.054688 81.59375 -55.359375 C 85.34375 -59.078125 89.3125 -59.195312 93.5 -55.71875 L 103.421875 -47.328125 C 107.921875 -43.585938 108.175781 -39.585938 104.1875 -35.328125 C 100.226562 -31.179688 95.5625 -26.578125 90.1875 -21.515625 C 84.8125 -16.460938 79.160156 -11.390625 73.234375 -6.296875 C 67.316406 -1.210938 61.554688 3.488281 55.953125 7.8125 C 50.347656 12.132812 45.265625 15.578125 40.703125 18.140625 C 38.921875 19.085938 37.195312 19.691406 35.53125 19.953125 C 33.875 20.210938 32.007812 20.207031 29.9375 19.9375 Z M 27.375 19.625 "/></g></g></g><g fill="#e4fbff" fill-opacity="1"><g transform="translate(689.537702, 155.423993)"><g/></g></g></svg>